<svg width="104" height="35" viewBox="0 0 104 35" fill="none" xmlns="http://www.w3.org/2000/svg">
<path d="M4.94626 34.3107H10.5133V17.9146H4.94626V34.3107Z" fill="#038036"/>
<path d="M14.8495 17.9146H20.418V19.6396H20.4809C21.7393 18.3614 23.3426 17.4352 25.1037 17.4352C28.0605 17.4352 32.1821 18.9359 32.1821 23.5066V34.3107H26.6135V25.0385C26.6135 23.4085 25.513 21.844 23.7196 21.844C22.0535 21.844 20.418 23.4085 20.418 25.0385V34.3107H14.8495V17.9146Z" fill="#038036"/>
<path d="M48.1597 18.2462L46.3357 21.9514C46.3357 21.9514 44.4489 20.9301 42.7505 20.9301C41.5243 20.9301 41.0201 21.1528 41.0201 21.9203C41.0201 22.7827 42.1528 23.038 43.5369 23.477C45.6751 24.148 48.4417 25.3623 48.4417 28.7172C48.4417 33.5432 44.1009 34.3076 40.7978 34.3076C36.8984 34.3076 34.5701 32.1032 34.5701 32.1032L36.8371 28.2393C36.8371 28.2393 39.0382 30.1245 40.8315 30.1245C41.6178 30.1245 42.562 30.028 42.562 28.9414C42.562 27.7598 40.7993 27.6648 38.9753 26.7058C37.3399 25.8434 35.7044 24.6929 35.7044 22.2332C35.7044 18.8783 38.5032 16.9619 42.7551 16.9619C44.6294 16.9667 46.4779 17.406 48.1597 18.2462Z" fill="#038036"/>
<path d="M52.1234 11.5007H57.6905V17.6033H61.0886V21.9156H57.6905V27.123C57.6905 28.6565 58.0691 29.3913 58.9489 29.3913C59.6723 29.3913 60.3284 28.8806 60.3284 28.8806L61.7079 33.4483C60.4432 34.1023 59.0468 34.4508 57.6276 34.4664C53.1933 34.4664 52.1234 31.1115 52.1234 28.205V21.9156H49.7967V17.6033H52.1234V11.5007Z" fill="#038036"/>
<path d="M70.6501 16.9681C72.8205 16.9681 74.6123 17.7029 75.9335 19.0122V17.4476H81.5021V33.8437H75.9964V31.9911H75.9335C75.2608 32.7317 74.4436 33.3218 73.5339 33.7238C72.6243 34.1259 71.6421 34.3311 70.6501 34.3263C65.9322 34.3263 62.6291 30.4608 62.6291 25.669C62.6291 20.8772 65.9322 16.9681 70.6501 16.9681ZM72.3162 29.4847C74.4866 29.4847 76.0592 27.8874 76.0592 25.6519C76.0592 23.3836 74.3931 21.7864 72.3162 21.7864C70.2102 21.7864 68.5425 23.3836 68.5425 25.6519C68.5425 27.8936 70.0523 29.4847 72.3162 29.4847Z" fill="#038036"/>
<path d="M92.3848 17.2795C94.5552 17.2795 96.3485 18.0143 97.6682 19.3235V6.67307H103.237V34.1551H97.7311V32.3025H97.6682C96.9955 33.043 96.1783 33.6331 95.2686 34.0352C94.359 34.4372 93.3768 34.6424 92.3848 34.6377C87.6669 34.6377 84.3638 30.7721 84.3638 25.9804C84.3638 21.1886 87.6669 17.2795 92.3848 17.2795ZM94.0509 29.796C96.2213 29.796 97.7939 28.1988 97.7939 25.9632C97.7939 23.695 96.1278 22.0977 94.0509 22.0977C91.9449 22.0977 90.2772 23.695 90.2772 25.9632C90.2772 28.205 91.787 29.796 94.0509 29.796Z" fill="#038036"/>
<path d="M7.69911 0.735489C9.12335 0.735118 10.5108 1.19448 11.6613 2.04724C12.8117 2.9 13.6656 4.10203 14.0995 5.47979C14.5335 6.85756 14.5251 8.33975 14.0756 9.71237C13.6261 11.085 12.7588 12.277 11.5988 13.1163C10.4388 13.9556 9.04622 14.3988 7.62209 14.3818C6.19795 14.3649 4.81597 13.8887 3.67568 13.022C2.53538 12.1553 1.69578 10.9429 1.2781 9.55999C0.860411 8.17705 0.886257 6.69506 1.3519 5.32801C1.80856 3.98735 2.66528 2.82458 3.80288 2.00148C4.94047 1.17837 6.30237 0.735853 7.69911 0.735489ZM7.69911 2.5834C6.46879 2.57785 5.28135 3.04213 4.37228 3.88416C3.4632 4.72619 2.8989 5.88447 2.79128 7.12929C2.68365 8.37411 3.04057 9.61456 3.79125 10.6046C4.54192 11.5947 5.63153 12.262 6.84398 12.4744C8.05642 12.6867 9.30315 12.4284 10.3369 11.7509C11.3707 11.0733 12.116 10.0259 12.425 8.8163C12.734 7.60675 12.5842 6.32342 12.0052 5.22081C11.4263 4.1182 10.4604 3.27685 9.29933 2.86362C8.78474 2.68195 8.2439 2.58882 7.69911 2.58807V2.5834Z" fill="#038036"/>
<path d="M9.11693 13.5292H6.57407C6.25832 13.5292 6.12803 13.758 6.2859 14.0367L7.55351 16.266C7.57499 16.3261 7.61417 16.378 7.66572 16.4147C7.71728 16.4514 7.77871 16.4711 7.84167 16.4711C7.90463 16.4711 7.96606 16.4514 8.01761 16.4147C8.06917 16.378 8.10835 16.3261 8.12983 16.266L9.39743 14.0367C9.55531 13.7611 9.42349 13.5292 9.11693 13.5292ZM7.9275 16.143C7.88918 16.21 7.85546 16.2286 7.84933 16.2286C7.8432 16.2286 7.80948 16.21 7.77116 16.143L6.49589 13.9168C6.45758 13.8483 6.45911 13.8094 6.46217 13.8047C6.46524 13.8 6.49743 13.7782 6.57407 13.7782H9.11693C9.15663 13.7733 9.19679 13.7826 9.23036 13.8047L7.91984 16.143H7.9275Z" fill="#038036"/>
<path d="M7.84165 16.5525C7.76619 16.5473 7.69351 16.5215 7.63121 16.478C7.56892 16.4344 7.5193 16.3747 7.48758 16.3049L6.21997 14.0725C6.17224 14.0118 6.14363 13.9379 6.13789 13.8605C6.13214 13.7831 6.14952 13.7057 6.18776 13.6384C6.226 13.5711 6.28332 13.5172 6.35223 13.4835C6.42115 13.4499 6.49845 13.4381 6.57404 13.4498H9.11691C9.19251 13.4381 9.26981 13.4499 9.33872 13.4835C9.40764 13.5172 9.46496 13.5711 9.5032 13.6384C9.54144 13.7057 9.55882 13.7831 9.55307 13.8605C9.54732 13.9379 9.51871 14.0118 9.47098 14.0725L8.19725 16.3049C8.1654 16.3749 8.11555 16.4348 8.05296 16.4784C7.99037 16.5219 7.91737 16.5475 7.84165 16.5525ZM6.57404 13.6055C6.52525 13.5926 6.47365 13.5964 6.42718 13.6162C6.38071 13.6361 6.34195 13.6709 6.31687 13.7153C6.29178 13.7597 6.28176 13.8112 6.28835 13.862C6.29494 13.9128 6.31777 13.9599 6.35333 13.9962L7.62093 16.2255C7.74508 16.445 7.93821 16.4435 8.0639 16.2255L9.3315 13.9962C9.36047 13.9564 9.3788 13.9097 9.38471 13.8606C9.39062 13.8115 9.3839 13.7617 9.36522 13.716C9.3366 13.6775 9.29874 13.6472 9.25527 13.6278C9.21179 13.6085 9.16415 13.6008 9.11691 13.6055H6.57404ZM7.84165 16.3065H7.83245C7.80258 16.2966 7.77511 16.2804 7.75186 16.2589C7.72861 16.2374 7.7101 16.2112 7.69757 16.1819L6.42996 13.9526C6.4111 13.9268 6.39791 13.8972 6.3913 13.8658C6.38469 13.8344 6.3848 13.8019 6.39164 13.7705L6.40084 13.7534C6.42419 13.7321 6.45169 13.7162 6.48154 13.7065C6.51139 13.6969 6.54292 13.6937 6.57404 13.6973H9.11691C9.14839 13.6938 9.18025 13.6971 9.21037 13.7071C9.24049 13.717 9.26819 13.7333 9.29165 13.7549V13.7705C9.31004 13.811 9.31004 13.811 7.98726 16.1819C7.94587 16.2551 7.89529 16.3018 7.85084 16.3065H7.84165ZM6.55105 13.8514L6.56178 13.8732L7.82938 16.1025L7.84165 16.1228L7.85391 16.1025C8.16046 15.5483 8.91305 14.2033 9.10772 13.8514H6.55105Z" fill="#038036"/>
<path d="M6.46216 13.8L7.84165 16.4746L9.22268 13.8016" fill="#038036"/>
<path d="M7.78343 11.988C10.1681 11.988 12.1012 10.0245 12.1012 7.60248C12.1012 5.18045 10.1681 3.21701 7.78343 3.21701C5.39876 3.21701 3.46561 5.18045 3.46561 7.60248C3.46561 10.0245 5.39876 11.988 7.78343 11.988Z" fill="#038036"/>
<path d="M8.30762 9.32429C9.07965 9.32429 9.7055 8.68862 9.7055 7.9045C9.7055 7.12037 9.07965 6.4847 8.30762 6.4847C7.53558 6.4847 6.90973 7.12037 6.90973 7.9045C6.90973 8.68862 7.53558 9.32429 8.30762 9.32429Z" fill="white" stroke="white" stroke-width="0.5" stroke-miterlimit="10"/>
<path d="M7.2362 6.43177C8.03024 6.43177 8.67394 5.95502 8.67394 5.36693C8.67394 4.77883 8.03024 4.30209 7.2362 4.30209C6.44216 4.30209 5.79846 4.77883 5.79846 5.36693C5.79846 5.95502 6.44216 6.43177 7.2362 6.43177Z" fill="white" stroke="white" stroke-width="0.5" stroke-miterlimit="10"/>
<path d="M11.515 8.29345C11.6448 7.62713 11.4457 7.02583 11.0703 6.95041C10.695 6.875 10.2855 7.35402 10.1557 8.02034C10.0259 8.68666 10.225 9.28796 10.6004 9.36338C10.9757 9.4388 11.3852 8.95977 11.515 8.29345Z" fill="white" stroke="white" stroke-width="0.5" stroke-miterlimit="10"/>
<path d="M8.13196 10.6673C8.38574 10.1522 7.94338 9.40518 7.14393 8.99893C6.34448 8.59268 5.49066 8.68098 5.23688 9.19615C4.9831 9.71133 5.42546 10.4583 6.22491 10.8645C7.02436 11.2708 7.87818 11.1825 8.13196 10.6673Z" fill="white" stroke="#FCFCFC" stroke-width="0.5" stroke-miterlimit="10"/>
<path d="M4.78331 9.51709C5.03968 9.43654 5.09377 8.86652 4.90413 8.24391C4.71449 7.6213 4.35293 7.18187 4.09657 7.26242C3.84021 7.34297 3.78612 7.913 3.97576 8.53561C4.1654 9.15822 4.52695 9.59764 4.78331 9.51709Z" fill="white" stroke="white" stroke-width="0.5" stroke-miterlimit="10"/>
<path d="M7.74048 11.7062C8.28395 11.7062 8.72452 11.5995 8.72452 11.468C8.72452 11.3364 8.28395 11.2298 7.74048 11.2298C7.19701 11.2298 6.75644 11.3364 6.75644 11.468C6.75644 11.5995 7.19701 11.7062 7.74048 11.7062Z" fill="white" stroke="white" stroke-width="0.5" stroke-miterlimit="10"/>
<path d="M10.1865 10.5923C10.6155 10.2535 10.8988 9.89463 10.8193 9.79078C10.7398 9.68694 10.3276 9.87745 9.89857 10.2163C9.46955 10.5551 9.18622 10.914 9.26573 11.0179C9.34523 11.1217 9.75748 10.9312 10.1865 10.5923Z" fill="white" stroke="white" stroke-width="0.5" stroke-miterlimit="10"/>
<path d="M10.26 4.6069C10.3121 4.45323 9.7669 4.1236 9.0424 3.87066C8.3179 3.61772 7.68842 3.53724 7.63641 3.69092C7.5844 3.84459 8.12956 4.17422 8.85406 4.42716C9.57855 4.68011 10.208 4.76058 10.26 4.6069Z" fill="white" stroke="white" stroke-width="0.5" stroke-miterlimit="10"/>
<path d="M11.2552 6.6111C11.3781 6.53188 11.2311 6.07274 10.9268 5.58557C10.6226 5.09841 10.2762 4.76771 10.1533 4.84693C10.0303 4.92614 10.1773 5.38529 10.4816 5.87245C10.7859 6.35961 11.1322 6.69032 11.2552 6.6111Z" fill="white" stroke="white" stroke-width="0.5" stroke-miterlimit="10"/>
<path d="M5.09733 6.02884C5.50693 5.37128 5.67833 4.73499 5.48017 4.60766C5.28201 4.48033 4.78933 4.91016 4.37973 5.56773C3.97014 6.22529 3.79873 6.86157 3.99689 6.9889C4.19505 7.11624 4.68774 6.6864 5.09733 6.02884Z" fill="white" stroke="white" stroke-width="0.5" stroke-miterlimit="10"/>
</svg>
