<svg xmlns="http://www.w3.org/2000/svg" width="13.828" height="12.099" viewBox="0 0 13.828 12.099">
  <path id="Icon_awesome-camera" data-name="Icon awesome-camera" d="M13.828,5.275v7.778a1.3,1.3,0,0,1-1.3,1.3H1.3a1.3,1.3,0,0,1-1.3-1.3V5.275a1.3,1.3,0,0,1,1.3-1.3H3.673l.332-.889a1.3,1.3,0,0,1,1.213-.84H8.607a1.3,1.3,0,0,1,1.213.84l.335.889h2.377A1.3,1.3,0,0,1,13.828,5.275ZM10.155,9.164A3.241,3.241,0,1,0,6.914,12.4,3.243,3.243,0,0,0,10.155,9.164Zm-.864,0A2.377,2.377,0,1,1,6.914,6.787,2.38,2.38,0,0,1,9.29,9.164Z" transform="translate(0 -2.25)" fill="#d66821"/>
</svg>
