<svg xmlns="http://www.w3.org/2000/svg" xmlns:xlink="http://www.w3.org/1999/xlink" width="57.781" height="49.825" viewBox="0 0 57.781 49.825">
  <defs>
    <filter id="bakance" x="0" y="0" width="57.781" height="49.825" filterUnits="userSpaceOnUse">
      <feOffset dy="3" input="SourceAlpha"/>
      <feGaussianBlur stdDeviation="3" result="blur"/>
      <feFlood flood-opacity="0.161"/>
      <feComposite operator="in" in2="blur"/>
      <feComposite in="SourceGraphic"/>
    </filter>
  </defs>
  <g transform="matrix(1, 0, 0, 1, 0, 0)" filter="url(#bakance)">
    <path id="bakance-2" data-name="bakance" d="M15.912,20.885h0c0-1.006.083-.543-5.287-11.282a2.986,2.986,0,0,0-5.337,0C-.128,20.434,0,19.911,0,20.885H0c0,2.746,3.562,4.973,7.956,4.973S15.912,23.631,15.912,20.885ZM7.956,10.94l4.475,8.951H3.481ZM39.78,20.885c0-1.006.083-.543-5.286-11.282a2.986,2.986,0,0,0-5.337,0C23.74,20.434,23.87,19.911,23.87,20.885h0c0,2.746,3.562,4.973,7.956,4.973s7.956-2.226,7.956-4.973Zm-12.43-.995,4.475-8.951L36.3,19.89Zm5.47,7.956H21.879V9.526a4.976,4.976,0,0,0,2.883-3.559h8.056a.994.994,0,0,0,.995-.995V2.984a.994.994,0,0,0-.995-.995H23.846a4.928,4.928,0,0,0-7.911,0H6.962a.994.994,0,0,0-.995.995V4.973a.994.994,0,0,0,.995.995h8.056A4.976,4.976,0,0,0,17.9,9.526V27.847H6.962a.994.994,0,0,0-.995.995V30.83a.994.994,0,0,0,.995.995H32.819a.994.994,0,0,0,.995-.995V28.841A.994.994,0,0,0,32.819,27.847Z" transform="translate(9 6)" fill="#aaa"/>
  </g>
</svg>
