<svg xmlns="http://www.w3.org/2000/svg" width="15" height="15" viewBox="0 0 15 15">
  <path id="Icon_awesome-thumbs-down" data-name="Icon awesome-thumbs-down" d="M0,1.641V8.672a.7.7,0,0,0,.7.7H3.047a.7.7,0,0,0,.7-.7V1.641a.7.7,0,0,0-.7-.7H.7A.7.7,0,0,0,0,1.641ZM1.172,7.5a.7.7,0,1,1,.7.7A.7.7,0,0,1,1.172,7.5ZM9.141,15c-.591,0-.864-1.151-.994-1.693A3.548,3.548,0,0,0,7.4,11.581c-.951-.953-1.45-2.167-2.611-3.314a.351.351,0,0,1-.1-.25V1.755A.352.352,0,0,1,5.033,1.4,4.61,4.61,0,0,0,6.575.929,8.41,8.41,0,0,1,10.078,0h.083c1.253,0,2.735.012,3.333.871a1.555,1.555,0,0,1,.18,1.308,2.317,2.317,0,0,1,.48,2.19A2.447,2.447,0,0,1,14.427,6.7l0,0A2.121,2.121,0,0,1,15,8.142a1.75,1.75,0,0,1-1.745,1.7h-2.98c.214.83.975,1.527.975,2.77C11.25,14.766,9.844,15,9.141,15Z"/>
</svg>
