<svg xmlns="http://www.w3.org/2000/svg" width="24.671" height="33.53" viewBox="0 0 24.671 33.53">
  <g id="Group_11017" data-name="Group 11017" transform="translate(0 0)">
    <path id="Path_1369" data-name="Path 1369" d="M-22.768-36.3a16.628,16.628,0,0,1-2.345-2.6,11.412,11.412,0,0,1-1.561-9.973,19.866,19.866,0,0,1,3.467-7,1.146,1.146,0,0,1,.13-.117c.374,1.185.461,2.481,1.516,3.443a12.373,12.373,0,0,0,.015-1.6A12.723,12.723,0,0,1-14.9-65.044,20.4,20.4,0,0,1-9.4-67.2c.112-.028.258-.1.334,0,.107.13-.053.236-.114.339a8.949,8.949,0,0,0-.478,8.66,25.289,25.289,0,0,1,1.9,5.317A11.606,11.606,0,0,1-7.512-50.7a5.485,5.485,0,0,1,2.969-3.7,5.5,5.5,0,0,0,1.26,4.668,4.133,4.133,0,0,1,.749,2.354A12.237,12.237,0,0,1-6.678-36.834a1.983,1.983,0,0,0-.17.2c-.435.286-.855.6-1.309.853a8.048,8.048,0,0,1-2.452,1.1c1.035-.621-5.157.788-5.63.964l-2.27-.368a1.072,1.072,0,0,0-.436-.194,10.56,10.56,0,0,1-2.436-1.09C-21.849-35.676-22.306-35.992-22.768-36.3Z" transform="translate(27.163 67.253)" fill="#7a7a7a"/>
    <path id="Path_1370" data-name="Path 1370" d="M18.21,48.8a3.938,3.938,0,0,1-.785.1,6.108,6.108,0,0,0,2.386-1.565A4.933,4.933,0,0,0,21.1,44.8a7.465,7.465,0,0,0-1.408-5.167c-.081-.12-.173-.291-.316-.276-.179.019-.125.24-.163.366a1.884,1.884,0,0,1-.547.994c.2-4.013-2.873-6.027-5.489-6.461a.262.262,0,0,0,.01.085c.075.159.156.314.229.474a3.836,3.836,0,0,1,.054,3.259,8.676,8.676,0,0,0-1.016,3.358,3.145,3.145,0,0,0-.876-1.238c-.086-.076-.162-.2-.294-.155-.15.047-.107.195-.1.3a2.162,2.162,0,0,1-.468,1.425,2.258,2.258,0,0,0-.423.949A4.667,4.667,0,0,0,10.3,44.58a5.406,5.406,0,0,0,1.962,3.268c.407.316.906.466,1.289.807a8.239,8.239,0,0,1-3.458-1.77c-.044-.037-.094-.068-.141-.1-.323-.377-.669-.737-.964-1.134a8.249,8.249,0,0,1-1.578-4.485,4.264,4.264,0,0,1,.88-3.3,2.151,2.151,0,0,0,.376-.739A3.368,3.368,0,0,0,8.8,35.236a3.717,3.717,0,0,1,2,2.479c.02-.374.015-.64.052-.9a13.271,13.271,0,0,1,1.251-3.861,6.348,6.348,0,0,0,.567-4.254,6.452,6.452,0,0,0-.934-2.124c4.693.962,8.728,4.129,8.465,9.857.744-.607.743-1.5,1.05-2.3L22,35.168l0,0a12.2,12.2,0,0,1,1.877,5.1,6.992,6.992,0,0,1-.336,3.539c-.272.634-.621,1.222-.938,1.83l0,0-.083.094a9.181,9.181,0,0,1-2.64,2.379l0,0-.11.08-.784.35Z" transform="translate(-3.329 -15.547)" fill="#aaa"/>
    <path id="Path_1371" data-name="Path 1371" d="M4.744-17.815,4-18.85c-.307.795-.305,1.693-1.05,2.3.262-5.729-3.772-8.9-8.465-9.857a6.452,6.452,0,0,1,.934,2.124,6.348,6.348,0,0,1-.567,4.254A13.27,13.27,0,0,0-6.4-16.168c-.036.26-.032.525-.052.9a3.717,3.717,0,0,0-2-2.479,3.368,3.368,0,0,1-.136,1.892,2.151,2.151,0,0,1-.376.739,4.264,4.264,0,0,0-.88,3.3A8.249,8.249,0,0,0-8.265-7.334c.3.4.641.757.964,1.134a2.89,2.89,0,0,1-1.336-.86,11.005,11.005,0,0,1-3.189-4.855,8.36,8.36,0,0,1-.258-3.592,14.428,14.428,0,0,1,.555-2.823,17.563,17.563,0,0,1,1.9-4.08c.2-.321.265-.2.363.055a4.914,4.914,0,0,0,.753,1.376,2.642,2.642,0,0,0,1.439.677c.236.076.217-.125.182-.272a7.672,7.672,0,0,1-.15-1.87,10.549,10.549,0,0,1,2.377-6.671A13.149,13.149,0,0,1,.946-33.031c.34-.134.686-.249,1.03-.374.11-.04.231-.109.327-.008s0,.2-.039.285a8.848,8.848,0,0,0-.606,3.686,9.593,9.593,0,0,0,1.006,3.779,19,19,0,0,1,1.6,4.622,3.409,3.409,0,0,1,.081.692A8.91,8.91,0,0,0,4.744-17.815Z" transform="translate(13.924 37.436)" fill="#979797"/>
    <path id="Path_1372" data-name="Path 1372" d="M34.641,106.3c-.384-.341-.882-.491-1.289-.807a5.406,5.406,0,0,1-1.962-3.268,4.667,4.667,0,0,1-.013-1.867,2.258,2.258,0,0,1,.423-.949,2.162,2.162,0,0,0,.468-1.425c-.005-.108-.048-.256.1-.3.132-.042.208.079.294.155a3.145,3.145,0,0,1,.876,1.238,8.676,8.676,0,0,1,1.016-3.358,3.836,3.836,0,0,0-.054-3.259c-.073-.16-.154-.315-.229-.474a.261.261,0,0,1-.01-.085c2.617.434,5.69,2.448,5.489,6.461a1.884,1.884,0,0,0,.547-.994c.038-.125-.016-.346.163-.366.143-.015.234.155.316.276a7.465,7.465,0,0,1,1.408,5.167,4.933,4.933,0,0,1-1.286,2.545,6.108,6.108,0,0,1-2.386,1.565v-.005c-.1,0-.2-.022-.269.075a7.437,7.437,0,0,1-1.852.085A16.671,16.671,0,0,1,34.641,106.3Z" transform="translate(-24.418 -73.189)" fill="#cecece"/>
    <path id="Path_1373" data-name="Path 1373" d="M132.285,82.508c.317-.608.666-1.2.938-1.83a6.992,6.992,0,0,0,.336-3.539,12.2,12.2,0,0,0-1.877-5.1,2.62,2.62,0,0,0,1.039-1.546,5.732,5.732,0,0,1,1.185-2.139c.141.536.2,1.035.367,1.508a4.42,4.42,0,0,0,.825,1.488,3.551,3.551,0,0,1,.788,2.094,10.861,10.861,0,0,1-.664,4.974,10.277,10.277,0,0,1-2.668,3.96A.354.354,0,0,1,132.285,82.508Z" transform="translate(-113.011 -52.418)" fill="#979797"/>
    <path id="Path_1374" data-name="Path 1374" d="M136.141,188.834l.082-.094Z" transform="translate(-116.946 -158.651)" fill="#f16175"/>
    <path id="Path_1375" data-name="Path 1375" d="M90.479,216.565c.07-.1.171-.079.269-.075C90.68,216.591,90.577,216.569,90.479,216.565Z" transform="translate(-76.651 -183.136)" fill="#fec843"/>
  </g>
</svg>
