<svg xmlns="http://www.w3.org/2000/svg" width="19.254" height="25.667" viewBox="0 0 19.254 25.667">
  <path id="tab_hotspot_active" d="M17.432,1a25.864,25.864,0,0,1,.89,5.776,4.176,4.176,0,0,1-4.1,4.488A4.38,4.38,0,0,1,9.851,6.781l.036-.433A16.568,16.568,0,0,0,6,17.046a9.627,9.627,0,0,0,19.254,0A20.6,20.6,0,0,0,17.432,1ZM15.278,23.062A3.822,3.822,0,0,1,11.4,19.284c0-1.949,1.264-3.321,3.381-3.754a9.28,9.28,0,0,0,5.559-3.1,16.791,16.791,0,0,1,.71,4.862,5.778,5.778,0,0,1-5.776,5.776Z" transform="translate(-6 -1.005)" fill="#1dc2c2"/>
</svg>
