<svg xmlns="http://www.w3.org/2000/svg" width="17.501" height="17.501" viewBox="0 0 17.501 17.501">
  <g id="Icon_feather-image" data-name="Icon feather-image" transform="translate(-4 -4)">
    <path id="Path_357" data-name="Path 357" d="M6.31,4.5H18.984a1.81,1.81,0,0,1,1.81,1.81V18.984a1.81,1.81,0,0,1-1.81,1.81H6.31a1.81,1.81,0,0,1-1.81-1.81V6.31A1.81,1.81,0,0,1,6.31,4.5Z" fill="none" stroke="#fff" stroke-linecap="round" stroke-linejoin="round" stroke-width="1"/>
    <path id="Path_358" data-name="Path 358" d="M13.216,11.858A1.358,1.358,0,1,1,11.858,10.5,1.358,1.358,0,0,1,13.216,11.858Z" transform="translate(-2.379 -2.379)" fill="none" stroke="#fff" stroke-linecap="round" stroke-linejoin="round" stroke-width="1"/>
    <path id="Path_359" data-name="Path 359" d="M21.984,19.526,17.457,15,7.5,24.957" transform="translate(-1.19 -4.163)" fill="none" stroke="#fff" stroke-linecap="round" stroke-linejoin="round" stroke-width="1"/>
  </g>
</svg>
