<svg xmlns="http://www.w3.org/2000/svg" xmlns:xlink="http://www.w3.org/1999/xlink" width="151.222" height="37.521" viewBox="0 0 151.222 37.521"><defs><clipPath id="a"><path d="M318.188,68.06l.227.317c0,.148-.023.291-.035.445l-.23-.317C318.165,68.357,318.176,68.208,318.188,68.06Z" transform="translate(-318.15 -68.06)" fill="none"/></clipPath><clipPath id="b"><path d="M318.107,72.311,317.88,72h0l.227.314Z" transform="translate(-317.88 -72)" fill="none"/></clipPath><clipPath id="c"><path d="M317.887,72.731l-.227-.317c.02-.143.044-.291.064-.434l.227.317C317.931,72.443,317.91,72.588,317.887,72.731Z" transform="translate(-317.66 -71.98)" fill="none"/></clipPath><clipPath id="d"><path d="M317.88,73.787h0l-.23-.317h0l.169.236.029.041h0A.5.5,0,0,1,317.88,73.787Z" transform="translate(-317.65 -73.47)" fill="none"/></clipPath><clipPath id="e"><path d="M231.444,90.622l-.215-.218a.427.427,0,0,1-.148-.291c0-.646,2.276-1.359,5.689-1.542l.218.221c-3.413.183-5.68.893-5.689,1.539A.411.411,0,0,0,231.444,90.622Z" transform="translate(-231.08 -88.57)" fill="none"/></clipPath><clipPath id="f"><path d="M269.573,89.909l.218.221c-.506-.512-2.284-1-4.816-1.2l-.215-.218C267.292,88.908,269.07,89.4,269.573,89.909Z" transform="translate(-264.76 -88.71)" fill="none"/></clipPath><clipPath id="g"><path d="M244.985,92l.218.218a.742.742,0,0,1,.247.53c0,.582-.873,1.1-2.529,1.478a30.015,30.015,0,0,1-11.439,0,4.9,4.9,0,0,1-2.238-.946l-.215-.218a4.858,4.858,0,0,0,2.235.946,30.379,30.379,0,0,0,11.433.009c1.644-.378,2.517-.89,2.526-1.478A.73.73,0,0,0,244.985,92Z" transform="translate(-229.03 -92)" fill="none"/></clipPath><clipPath id="h"><path d="M239.257,92.574l-.218-.218a.081.081,0,0,1-.029-.058c0-.23,1.6-.565,4.074-.637l.218.218c-2.485.073-4.074.407-4.074.637A.081.081,0,0,0,239.257,92.574Z" transform="translate(-239.01 -91.66)" fill="none"/></clipPath><clipPath id="i"><path d="M265.513,92.306l.215.218a8.874,8.874,0,0,0-3.39-.556l-.218-.218A9.224,9.224,0,0,1,265.513,92.306Z" transform="translate(-262.12 -91.75)" fill="none"/></clipPath><clipPath id="j"><path d="M247.687,93.11l.218.218a.291.291,0,0,1,.1.215c0,.707-3.134,1.074-6.21,1.074-2.747,0-5.529-.291-6.079-.856l-.218-.218c.562.565,3.332.856,6.079.856,3.079,0,6.2-.367,6.21-1.074A.291.291,0,0,0,247.687,93.11Z" transform="translate(-235.5 -93.11)" fill="none"/></clipPath><clipPath id="k"><path d="M250.45,37.3l.23.317.512.824c.634,1.039,1.568,2.578,1.688,2.8l-.233-.317c-.119-.218-1.053-1.746-1.691-2.8C250.735,37.766,250.552,37.466,250.45,37.3Z" transform="translate(-250.45 -37.3)" fill="none"/></clipPath><clipPath id="l"><path d="M253.9,38.9l.227.317a4.041,4.041,0,0,0-1.746.358l-.23-.317A4.058,4.058,0,0,1,253.9,38.9Z" transform="translate(-252.15 -38.897)" fill="none"/></clipPath><clipPath id="m"><path d="M264,37l.227.317-.34.5-.227-.317C263.785,37.326,263.9,37.157,264,37Z" transform="translate(-263.66 -37)" fill="none"/></clipPath><clipPath id="n"><path d="M262.984,39.6l.227.317-.041.061-.23-.317Z" transform="translate(-262.94 -39.6)" fill="none"/></clipPath><clipPath id="o"><path d="M259.586,39.172l.23.317a4.076,4.076,0,0,0-1.376-.262l-.23-.317A4.076,4.076,0,0,1,259.586,39.172Z" transform="translate(-258.21 -38.91)" fill="none"/></clipPath><clipPath id="p"><path d="M268.12,38.954l.23.317q-.157-.131-.323-.244l-.227-.317A3.667,3.667,0,0,1,268.12,38.954Z" transform="translate(-267.8 -38.71)" fill="none"/></clipPath><clipPath id="q"><path d="M245.281,48.118l-.227-.317a3.76,3.76,0,0,1,.39-4.871l.23.317a3.757,3.757,0,0,0-.393,4.871Z" transform="translate(-244.338 -42.93)" fill="none"/></clipPath><clipPath id="r"><path d="M267.623,42.9l.23.317a3.857,3.857,0,0,0-.626-.681L267,42.22A3.862,3.862,0,0,1,267.623,42.9Z" transform="translate(-267 -42.22)" fill="none"/></clipPath><clipPath id="s"><path d="M244.34,61.9l-.23-.314a4.851,4.851,0,0,0,.46.544l.23.317A4.617,4.617,0,0,1,244.34,61.9Z" transform="translate(-244.11 -61.59)" fill="none"/></clipPath><clipPath id="t"><path d="M255.444,54.11l.227.317c-.259.407-.5.786-.931,1.4l-.23-.314C254.944,54.9,255.182,54.517,255.444,54.11Z" transform="translate(-254.51 -54.11)" fill="none"/></clipPath><clipPath id="u"><path d="M247.565,65.015l.23.314a4.559,4.559,0,0,1-.818-.582l-.227-.317A4.7,4.7,0,0,0,247.565,65.015Z" transform="translate(-246.75 -64.43)" fill="none"/></clipPath><clipPath id="v"><path d="M271.82,42.65l.227.317a4.672,4.672,0,0,1,.893,2.788l-.23-.317A4.657,4.657,0,0,0,271.82,42.65Z" transform="translate(-271.82 -42.65)" fill="none"/></clipPath><clipPath id="w"><path d="M262.57,64.49l.227.317c0,.023.029.044.038.061l-.227-.317A.551.551,0,0,1,262.57,64.49Z" transform="translate(-262.57 -64.49)" fill="none"/></clipPath><clipPath id="x"><path d="M251.861,67.069l.227.317a4.947,4.947,0,0,1-2.328-.629l-.23-.317A4.947,4.947,0,0,0,251.861,67.069Z" transform="translate(-249.53 -66.44)" fill="none"/></clipPath><clipPath id="y"><path d="M262.7,64.7l.227.317c.052.081.367.538.509.748l-.227-.317C263.078,65.238,262.752,64.787,262.7,64.7Z" transform="translate(-262.7 -64.7)" fill="none"/></clipPath><clipPath id="z"><path d="M246.4,31.486l.23.317a7.223,7.223,0,0,0-5.616-2.957h-.151a6.76,6.76,0,0,0-6.306,3.562,6.439,6.439,0,0,0,.253,7.15c.34.495.684.978,1.03,1.455l-.227-.317c-.349-.483-.693-.966-1.03-1.455a6.438,6.438,0,0,1-.256-7.153,6.734,6.734,0,0,1,6.309-3.562h.148A7.22,7.22,0,0,1,246.4,31.486Z" transform="translate(-233.37 -28.525)" fill="none"/></clipPath><clipPath id="aa"><path d="M259.593,67.27l.227.317a4.864,4.864,0,0,1-1.99.387l-.23-.314A4.945,4.945,0,0,0,259.593,67.27Z" transform="translate(-257.6 -67.27)" fill="none"/></clipPath><clipPath id="ab"><path d="M266.615,64.77l.227.317c-.064.055-.134.1-.2.154a4.6,4.6,0,0,1-.634.393l-.227-.317a5.092,5.092,0,0,0,.646-.39C266.481,64.878,266.548,64.837,266.615,64.77Z" transform="translate(-265.78 -64.77)" fill="none"/></clipPath><clipPath id="ac"><path d="M232.29,54.51l.227.317c.017.195.047.39.081.582l-.23-.317Q232.316,54.8,232.29,54.51Z" transform="translate(-232.29 -54.51)" fill="none"/></clipPath><clipPath id="ad"><path d="M240.07,70.9l.087.122-.23-.323-.087-.122C239.91,70.682,240,70.81,240.07,70.9Z" transform="translate(-239.84 -70.58)" fill="none"/></clipPath><clipPath id="ae"><path d="M270,52.23l.23.317a4.7,4.7,0,0,1-1.455,3.341c-.113.108-.23.212-.349.308-.067.055-.137.108-.207.157L268,56.036c.07-.049.137-.1.2-.154.122-.1.239-.2.349-.311A4.706,4.706,0,0,0,270,52.23Z" transform="translate(-268 -52.23)" fill="none"/></clipPath><clipPath id="af"><path d="M279.09,38l.23.317a6.888,6.888,0,0,1,.582.934l-.227-.317A7.2,7.2,0,0,0,279.09,38Z" transform="translate(-279.09 -38)" fill="none"/></clipPath><clipPath id="ag"><path d="M240.377,71.323,240.15,71l.239.332c.722.992,1.455,1.979,2.232,3,.492.652,1.048,1.388,1.583,2.11l.227.317c-.535-.722-1.091-1.455-1.58-2.11-.768-1.021-1.51-2-2.232-3Z" transform="translate(-240.15 -71)" fill="none"/></clipPath><clipPath id="ah"><path d="M266.27,41.23l.227.317a6.834,6.834,0,0,1,.716,4.054c-.035.242-.079.48-.137.716a6.985,6.985,0,0,1-.969,2.188c-.4.6-.826,1.19-1.266,1.769-.111.148-.224.291-.338.442-.742.952-1.516,1.877-2.273,2.782-.6.71-1.211,1.455-1.8,2.185l-.23-.317c.582-.739,1.208-1.475,1.8-2.185.759-.905,1.531-1.827,2.273-2.782l.34-.442c.439-.582.873-1.164,1.263-1.769A6.987,6.987,0,0,0,266.835,46a6.568,6.568,0,0,0,.137-.716A6.854,6.854,0,0,0,266.27,41.23Z" transform="translate(-260.2 -41.23)" fill="none"/></clipPath><clipPath id="ai"><path d="M252.82,79.85h.154c.378.5.8,1.062,1.208,1.615h-.146C253.617,80.912,253.2,80.351,252.82,79.85Z" transform="translate(-252.82 -79.85)" fill="none"/></clipPath><clipPath id="aj"><path d="M243.242,32.994h.157a5.576,5.576,0,0,0-5.084,2.954,5.3,5.3,0,0,0,.2,5.881c1.071,1.539,2.148,2.994,3.306,4.551h-.157c-1.164-1.542-2.249-3-3.3-4.534a5.294,5.294,0,0,1-.2-5.881A5.578,5.578,0,0,1,243.242,32.994Z" transform="translate(-237.366 -32.992)" fill="none"/></clipPath><clipPath id="ak"><path d="M257.58,31.78" transform="translate(-257.58 -31.78)" fill="none"/></clipPath><clipPath id="al"><path d="M258,31.79" transform="translate(-258 -31.79)" fill="none"/></clipPath><clipPath id="am"><path d="M258.41,31.8h.154a6.291,6.291,0,0,1,5.43,3.381h-.154A6.3,6.3,0,0,0,258.41,31.8Z" transform="translate(-258.41 -31.8)" fill="none"/></clipPath><clipPath id="an"><path d="M263.223,43.42h.154a5.665,5.665,0,0,1-.323,5.782,54.286,54.286,0,0,1-3.635,4.7c-.567.681-1.164,1.385-1.726,2.1h-.154c.582-.716,1.164-1.42,1.726-2.1a54.94,54.94,0,0,0,3.646-4.7A5.681,5.681,0,0,0,263.223,43.42Z" transform="translate(-257.54 -43.42)" fill="none"/></clipPath><clipPath id="ao"><path d="M267.08,117.73l-.291.16a17.226,17.226,0,0,1-8.439,2.188l.291-.16A17.2,17.2,0,0,0,267.08,117.73Z" transform="translate(-258.35 -117.73)" fill="none"/></clipPath><clipPath id="ap"><path d="M205.935,10.82l.291-.16a17.518,17.518,0,0,0-8.942,15.58,18.009,18.009,0,0,0,17.859,17.765l-.291.16a18,18,0,0,1-17.859-17.751A17.518,17.518,0,0,1,205.935,10.82Z" transform="translate(-196.99 -10.66)" fill="none"/></clipPath><clipPath id="aq"><path d="M226.19,2.462l.291-.16A18.1,18.1,0,0,1,235.348,0l-.291.16A18.114,18.114,0,0,0,226.19,2.462Z" transform="translate(-226.19 0)" fill="none"/></clipPath><clipPath id="ar"><path d="M266.337,35.059l-.291.16a18.42,18.42,0,0,0,9.4-16.377A18.936,18.936,0,0,0,256.67.16l.291-.16a18.941,18.941,0,0,1,18.775,18.682A18.418,18.418,0,0,1,266.337,35.059Z" transform="translate(-256.67)" fill="none"/></clipPath></defs><path d="M3.536,56.7H1.208L0,45.9H1.653l.911,8.523L3.381,45.9H5.017l.85,8.584L6.739,45.9H8.224l-1.2,10.8H4.769l-.617-5.747Z" transform="translate(0 -32.543)" fill="#fff"/><path d="M41.587,50.454V52H39.259v3.163h2.93V56.7H37.56V45.9h4.63v1.545H39.257v3.009Z" transform="translate(-26.63 -32.543)" fill="#fff"/><path d="M82.764,45.9h2.363V56.7h-1.6V48.958L82.348,56.7H80.741l-1.266-7.63V56.7H78V45.9h2.357l1.251,7.674Z" transform="translate(-55.302 -32.543)" fill="#fff"/><path d="M115.805,56.7l-.291-1.961h-2.084L113.14,56.7h-1.56L113.3,45.9h2.473l1.746,10.8Zm-.527-3.428-.818-5.465-.818,5.465Z" transform="translate(-79.111 -32.543)" fill="#fff"/><path d="M144.5,56.213a7.57,7.57,0,0,1-.029-.832v-1.7a1.662,1.662,0,0,0-.262-1.056,1.045,1.045,0,0,0-.85-.317h-.582V56.7h-1.7V45.9h2.561a2.173,2.173,0,0,1,2.517,2.485v.85a2.177,2.177,0,0,1-1.112,2.194,1.56,1.56,0,0,1,.873.824,3.6,3.6,0,0,1,.262,1.475V55.4a7.215,7.215,0,0,0,.032.748,1.893,1.893,0,0,0,.14.553h-1.729A2.518,2.518,0,0,1,144.5,56.213Zm-1.729-5.45h.663a1.021,1.021,0,0,0,.765-.262,1.244,1.244,0,0,0,.253-.873v-1.08a1.364,1.364,0,0,0-.207-.85.792.792,0,0,0-.658-.262h-.818Z" transform="translate(-100.026 -32.543)" fill="#fff"/><path d="M170.447,53.387V56.7h-1.7V45.9h1.7v4.708L172.67,45.9h1.7l-2.363,4.819,2.363,5.977h-1.746l-1.65-4.307Z" transform="translate(-119.644 -32.543)" fill="#fff"/><path d="M331.927,45.9v1.545h-1.775V56.7h-1.7V47.445H326.68V45.9Z" transform="translate(-231.617 -32.543)" fill="#fff"/><path d="M353.62,56.7V45.9h1.7v4.633h1.929V45.9h1.72V56.7H357.24V52.075h-1.929V56.7Z" transform="translate(-250.718 -32.543)" fill="#fff"/><path d="M386.67,50.454V52h-2.328v3.163h2.933V56.7H382.64V45.9h4.633v1.545h-2.933v3.009Z" transform="translate(-271.293 -32.543)" fill="#fff"/><path d="M422.9,46.181a2.839,2.839,0,0,1,3.736,0,2.915,2.915,0,0,1,.632,2.017v.343h-1.6v-.454a1.227,1.227,0,0,0-.218-.809.911.911,0,0,0-1.266,0,1.247,1.247,0,0,0-.215.809,2,2,0,0,0,.364,1.19,7.3,7.3,0,0,0,1.088,1.164,12.563,12.563,0,0,1,.972.981,3.94,3.94,0,0,1,.631,1.024,3.424,3.424,0,0,1,.265,1.376,2.873,2.873,0,0,1-.649,2.014,2.882,2.882,0,0,1-3.768,0,2.849,2.849,0,0,1-.646-2.014v-.669h1.6v.771q0,1.048.873,1.048t.873-1.048a2,2,0,0,0-.364-1.19,7.4,7.4,0,0,0-1.088-1.164,13.183,13.183,0,0,1-.972-.978,3.963,3.963,0,0,1-.631-1.027,3.362,3.362,0,0,1-.265-1.374A2.955,2.955,0,0,1,422.9,46.181Z" transform="translate(-299.355 -32.245)" fill="#fff"/><path d="M453.72,46.581a2.819,2.819,0,0,1,.634,1.99v1.406a2.807,2.807,0,0,1-.634,1.99,2.5,2.5,0,0,1-1.9.681h-.8V56.7h-1.7V45.9h2.5A2.465,2.465,0,0,1,453.72,46.581Zm-2.7,4.522h.8a.8.8,0,0,0,.626-.23,1.192,1.192,0,0,0,.207-.789V48.464a1.2,1.2,0,0,0-.207-.789.8.8,0,0,0-.626-.23h-.8Z" transform="translate(-318.569 -32.543)" fill="#fff"/><path d="M476.13,46.176a2.933,2.933,0,0,1,3.827,0,2.834,2.834,0,0,1,.663,2.008V53.8a2.825,2.825,0,0,1-.663,2,2.933,2.933,0,0,1-3.827,0,2.825,2.825,0,0,1-.663-2V48.184A2.833,2.833,0,0,1,476.13,46.176Zm1.915,8.8q.873,0,.873-1.065V48.074q0-1.065-.873-1.065t-.873,1.065v5.837Q477.163,54.976,478.044,54.976Z" transform="translate(-337.103 -32.232)" fill="#fff"/><path d="M506.88,45.9v1.545H505.1V56.7h-1.7V47.445H501.63V45.9Z" transform="translate(-355.657 -32.543)" fill="#fff"/><path d="M210.086,71.621l.23.317-12.676-.221-.23-.317Z" transform="translate(-139.964 -50.623)" fill="#fff"/><path d="M198.059,67.345l.23.317-.989-.017-.23-.314Z" transform="translate(-139.723 -47.737)" fill="#fff"/><path d="M306.407,59.669l.227.314-.387-.006-.227-.317Z" transform="translate(-216.969 -42.299)" fill="#fff"/><path d="M308.878,58.18l.227.314-.015.73-.23-.317Z" transform="translate(-218.983 -41.25)" fill="#fff"/><path d="M286.844,72.961l.23.317-12.644-.221-.23-.317Z" transform="translate(-194.409 -51.573)" fill="#fff"/><path d="M286.911,71.468c-.02.148-.044.291-.067.445L274.2,71.692l.34-.442Z" transform="translate(-194.409 -50.516)" fill="#fff"/><path d="M312.47,55.19l.23.317,1.1,1.816-.23-.314Z" transform="translate(-221.542 -39.13)" fill="#fff"/><path d="M316.168,61.44l.23.314-.041,1.918-.227-.317Z" transform="translate(-224.137 -43.561)" fill="#fff"/><path d="M315.6,69.547l.23.317-1.048-.017-.23-.317Z" transform="translate(-223.017 -49.297)" fill="#fff"/><g transform="translate(92.581 19.805)"><path d="M318.188,68.06l.227.317c0,.148-.023.291-.035.445l-.23-.317C318.165,68.357,318.176,68.208,318.188,68.06Z" transform="translate(-318.15 -68.06)" fill="#117474"/><g clip-path="url(#a)"><path d="M318.188,68.06l.227.317c0,.148-.023.291-.035.445l-.23-.317c.015-.148.026-.291.038-.445" transform="translate(-318.15 -68.06)" fill="#117474"/></g></g><g transform="translate(92.502 20.952)"><path d="M318.107,72.311,317.88,72h0l.227.314Z" transform="translate(-317.88 -72)" fill="#117474"/><g clip-path="url(#b)"><g transform="translate(-0.067)"><path d="M317.717,72l.227.314c-.02.151-.041.291-.064.448l-.23-.317c.023-.148.047-.291.067-.445" transform="translate(-317.65 -72)" fill="#117474"/></g></g></g><g transform="translate(92.438 20.946)"><path d="M317.887,72.731l-.227-.317c.02-.143.044-.291.064-.434l.227.317C317.931,72.443,317.91,72.588,317.887,72.731Z" transform="translate(-317.66 -71.98)" fill="#117474"/><g clip-path="url(#c)"><g transform="translate(-0.003 0.006)"><path d="M317.717,72l.227.314c-.02.151-.041.291-.064.448l-.23-.317c.023-.148.047-.291.067-.445" transform="translate(-317.65 -72)" fill="#117474"/></g></g></g><g transform="translate(92.435 21.38)"><path d="M317.88,73.787h0l-.23-.317h0l.169.236.029.041h0A.5.5,0,0,1,317.88,73.787Z" transform="translate(-317.65 -73.47)" fill="#117474"/><g clip-path="url(#d)"><g transform="translate(0 -0.428)"><path d="M317.717,72l.227.314c-.02.151-.041.291-.064.448l-.23-.317c.023-.148.047-.291.067-.445" transform="translate(-317.65 -72)" fill="#117474"/></g></g></g><path d="M286.2,41.77l-.041,1.912h.428l-.049,2.229.474-.873,1.286.023.291.535.061-2.91,1.557,2.45-.029,1.388h.387l-.017.727,1.05-1.6,1.1,1.819-.044,1.929h.626c0,.148-.023.291-.038.445l-1.048-.017.049-2.235-.669-1.1-.582.9-.049,2.436h-.9l.061-2.846h-.387l.035-1.7-.69-1.088-.108,4.627h-.794l.061-2.89-.2-.387-.751-.015-.4.719L286.8,49.8h-.792l.119-5.654H285.7l.038-1.912H285.3l-.1,4.813-.978-1.859-1.053,1.49-.134-.262a6.568,6.568,0,0,0,.137-.716l.058.116,1.048-1.487.512.972.073-3.521Z" transform="translate(-200.669 -29.615)" fill="#fff"/><g transform="translate(66.4 25.346)"><path d="M249.51,87.1l.215.218.329.425-.218-.221Z" transform="translate(-243.303 -87.1)" fill="#7f3e14"/><g transform="translate(0.844 0.428)"><g clip-path="url(#e)"><g transform="translate(-0.002 -0.006)"><path d="M237.109,88.55l.218.221c-2.91.154-5.005.7-5.549,1.26l-.218-.218c.547-.562,2.619-1.106,5.549-1.263" transform="translate(-231.418 -88.55)" fill="#7f3e14"/><path d="M231.39,92.89l.218.218a.633.633,0,0,0-.073.087l-.215-.218a.61.61,0,0,1,.07-.087" transform="translate(-231.248 -91.627)" fill="#7f3e14"/><path d="M231.242,93.19l.215.218a.533.533,0,0,0-.032.052l-.215-.221a.351.351,0,0,1,.032-.049" transform="translate(-231.17 -91.84)" fill="#7f3e14"/><path d="M231.16,93.36l.215.221a.072.072,0,0,1-.02.049l-.215-.218a.37.37,0,0,1,.02-.052" transform="translate(-231.12 -91.96)" fill="#7f3e14"/><path d="M231.137,93.54l.215.218a.217.217,0,0,0,0,.044l-.215-.218a.222.222,0,0,1,0-.044" transform="translate(-231.118 -92.088)" fill="#7f3e14"/><path d="M231.09,93.69l.215.218a.217.217,0,0,0,0,.044l-.218-.218a.217.217,0,0,1,0-.044" transform="translate(-231.082 -92.194)" fill="#7f3e14"/><path d="M231.075,93.84l.218.218h0a.165.165,0,0,0,0,.076l-.218-.218a.329.329,0,0,1,0-.076h0" transform="translate(-231.073 -92.301)" fill="#7f3e14"/><path d="M231.11,94.11l.218.218a.448.448,0,0,0,.087.169l-.215-.221a.427.427,0,0,1-.09-.166" transform="translate(-231.099 -92.492)" fill="#7f3e14"/><path d="M231.42,94.68l.215.221.049.052-.215-.218a.288.288,0,0,1-.049-.055" transform="translate(-231.319 -92.896)" fill="#7f3e14"/></g></g></g><g transform="translate(10.645 0.469)"><g clip-path="url(#f)"><path d="M269.573,89.909l.218.221c-.506-.512-2.284-1-4.816-1.2l-.215-.218c2.532.2,4.31.69,4.813,1.2" transform="translate(-264.76 -88.71)" fill="#7f3e14"/></g></g><g transform="translate(0.247 1.426)"><g clip-path="url(#g)"><path d="M283.86,92l.218.218c.026.029.052.055.076.084l-.218-.218A.521.521,0,0,0,283.86,92" transform="translate(-267.905 -92)" fill="#7f3e14"/><path d="M284.12,92.32l.218.218a.736.736,0,0,1,.163.332l-.218-.218a.736.736,0,0,0-.163-.332" transform="translate(-268.089 -92.227)" fill="#7f3e14"/><path d="M284.68,93.46l.218.218a.726.726,0,0,1,0,.113h0l-.218-.218h0a.494.494,0,0,0,0-.113" transform="translate(-268.486 -93.035)" fill="#7f3e14"/><path d="M284.71,93.89l.218.218V94.2l-.215-.221a.464.464,0,0,0,0-.09" transform="translate(-268.507 -93.34)" fill="#7f3e14"/><path d="M284.623,94.2l.215.221c-.006.027-.012.055-.02.081l-.218-.218a.7.7,0,0,0,.023-.084" transform="translate(-268.429 -93.56)" fill="#7f3e14"/><path d="M284.515,94.49l.218.218a.733.733,0,0,1-.035.084l-.218-.218a.434.434,0,0,0,.035-.084" transform="translate(-268.344 -93.765)" fill="#7f3e14"/><path d="M284.338,94.78l.218.218a1.084,1.084,0,0,1-.058.1l-.218-.218a.674.674,0,0,0,.058-.1" transform="translate(-268.202 -93.971)" fill="#7f3e14"/><path d="M284.011,95.12l.218.218a1.161,1.161,0,0,1-.111.134l-.218-.218a.921.921,0,0,0,.111-.134" transform="translate(-267.933 -94.212)" fill="#7f3e14"/><path d="M245,95.58l.218.218a4.87,4.87,0,0,1-2.293.975,30.015,30.015,0,0,1-11.439,0,4.9,4.9,0,0,1-2.238-.946l-.215-.218a4.858,4.858,0,0,0,2.235.946,30.142,30.142,0,0,0,11.433,0,4.827,4.827,0,0,0,2.29-.975" transform="translate(-229.03 -94.538)" fill="#7f3e14"/></g></g><path d="M234.387,87.1l.326.422c-3.413.183-5.68.9-5.689,1.542,0,.751,3.006,1.589,7.356,1.589s7.394-.838,7.406-1.589c0-.6-1.941-1.26-4.962-1.5l.361-.419a21.33,21.33,0,0,1,2.962.439c1.632.378,2.491.89,2.482,1.475s-.873,1.1-2.526,1.478a30.187,30.187,0,0,1-11.442,0c-1.632-.378-2.491-.89-2.482-1.478s.873-1.1,2.526-1.475A23.231,23.231,0,0,1,234.387,87.1Z" transform="translate(-228.18 -87.1)" fill="#fff"/></g><g transform="translate(68.437 26.26)"><path d="M251.94,90.24l.218.218.317.413-.215-.218Z" transform="translate(-247.063 -90.24)" fill="#117474"/><g transform="translate(1.115 0.413)"><g clip-path="url(#h)"><g transform="translate(-0.006)"><path d="M243.131,91.66l.218.218a10.875,10.875,0,0,0-4.051.582l-.218-.218a11.011,11.011,0,0,1,4.051-.582" transform="translate(-239.054 -91.66)" fill="#117474"/><path d="M239.077,93.65l.218.218-.02.023-.215-.218.017-.023" transform="translate(-239.04 -93.071)" fill="#117474"/><path d="M239.06,93.73l.215.218h0l-.215-.218h0" transform="translate(-239.04 -93.128)" fill="#117474"/><path d="M238.993,93.76l.215.218h0l-.218-.218h0" transform="translate(-238.99 -93.149)" fill="#117474"/><path d="M239,93.79l.218.218h0L239,93.79h0" transform="translate(-238.997 -93.17)" fill="#117474"/><path d="M238.993,93.82l.215.218h0l-.218-.218h0" transform="translate(-238.99 -93.191)" fill="#117474"/><path d="M239,93.85l.218.218h0a.078.078,0,0,0,0,.035L239,93.882a.044.044,0,0,1,0-.032h0" transform="translate(-238.997 -93.213)" fill="#117474"/><path d="M239.05,93.972l.215.221h0l-.215-.218V93.96" transform="translate(-239.033 -93.291)" fill="#117474"/><path d="M239.073,94l.215.218h0L239.07,94h0" transform="translate(-239.047 -93.319)" fill="#117474"/></g></g></g><g transform="translate(7.839 0.439)"><g clip-path="url(#i)"><path d="M265.513,92.306l.215.218a8.874,8.874,0,0,0-3.39-.556l-.218-.218a8.9,8.9,0,0,1,3.393.556" transform="translate(-262.12 -91.75)" fill="#117474"/></g></g><g transform="translate(0.093 0.835)"><g clip-path="url(#j)"><path d="M277.38,93.11l.218.218.035.038-.218-.218a.214.214,0,0,0-.035-.038" transform="translate(-265.193 -93.11)" fill="#117474"/><path d="M277.5,93.24l.218.218a.292.292,0,0,1,.061.122l-.218-.218a.27.27,0,0,0-.061-.122" transform="translate(-265.278 -93.202)" fill="#117474"/><path d="M277.71,93.66l.218.218a.348.348,0,0,1,0,.055h0l-.218-.218h0a.118.118,0,0,0,0-.055" transform="translate(-265.427 -93.5)" fill="#117474"/><path d="M277.73,93.87l.218.218v.035l-.218-.218a.142.142,0,0,0,0-.035" transform="translate(-265.441 -93.649)" fill="#117474"/><path d="M277.72,94l.218.218v.035l-.218-.218V94" transform="translate(-265.434 -93.741)" fill="#117474"/><path d="M277.655,94.11l.218.218-.017.035-.215-.218a.169.169,0,0,0,.015-.035" transform="translate(-265.377 -93.819)" fill="#117474"/><path d="M277.569,94.23l.215.218a.217.217,0,0,1-.029.049l-.215-.221a.25.25,0,0,0,.029-.047" transform="translate(-265.307 -93.904)" fill="#117474"/><path d="M277.441,94.39l.215.221a.3.3,0,0,1-.041.047l-.215-.218a.333.333,0,0,0,.041-.049" transform="translate(-265.207 -94.018)" fill="#117474"/><path d="M247.693,94.56l.215.218c-.553.582-3.349.873-6.111.873s-5.529-.291-6.079-.856l-.218-.218c.562.565,3.332.856,6.079.856s5.558-.291,6.111-.873" transform="translate(-235.5 -94.138)" fill="#117474"/></g></g><path d="M240.057,90.24l.32.413c-2.485.073-4.074.407-4.074.637s2.014.655,5.063.655,5.078-.393,5.084-.655c0-.21-1.312-.506-3.422-.611l.355-.41c2.3.125,4.2.471,4.187,1.021,0,.707-3.131,1.074-6.21,1.074s-6.19-.367-6.181-1.074C235.18,90.688,237.456,90.33,240.057,90.24Z" transform="translate(-235.18 -90.24)" fill="#fff"/></g><path d="M295.149,48.36l.227.317-.047,2.232-.23-.317Z" transform="translate(-209.227 -34.287)" fill="#117474"/><path d="M290.579,43.25l.23.317-.1,4.813-.227-.317Z" transform="translate(-205.951 -30.664)" fill="#117474"/><path d="M296.666,54.62l.23.317-.4.719-.23-.317Z" transform="translate(-210.056 -38.726)" fill="#117474"/><path d="M301.15,53.15l.227.317.285.535-.227-.317Z" transform="translate(-213.516 -37.683)" fill="#117474"/><path d="M296.086,57.09l.23.317-.076,3.565-.23-.317Z" transform="translate(-209.872 -40.477)" fill="#117474"/><path d="M294.082,69.312l.23.317-.794-.012-.227-.317Z" transform="translate(-207.943 -49.134)" fill="#117474"/><path d="M303.529,50.08l.227.317-.1,4.627-.23-.317Z" transform="translate(-215.133 -35.507)" fill="#117474"/><path d="M301.494,65.945l.23.317-.794-.015-.23-.317Z" transform="translate(-213.197 -46.745)" fill="#117474"/><path d="M210.369,47.98l.227.314-.826,1.2-.23-.317Z" transform="translate(-148.565 -34.018)" fill="#117474"/><path d="M201.392,55.88l.227.314-.759,1.149-.23-.317Z" transform="translate(-142.247 -39.619)" fill="#117474"/><path d="M224.288,41.939l.23.317-.538-.009-.23-.317Z" transform="translate(-158.639 -29.728)" fill="#117474"/><path d="M203.3,53.57l.23.317.94,1.563-.23-.317Z" transform="translate(-144.14 -37.981)" fill="#117474"/><path d="M213.551,43.92l.23.317-.061,2.945-.23-.317Z" transform="translate(-151.365 -31.139)" fill="#117474"/><path d="M209.455,52.08l.23.317-.035,1.67-.23-.317Z" transform="translate(-148.479 -36.925)" fill="#117474"/><path d="M208.477,57.806l.23.317-.387-.006-.23-.317Z" transform="translate(-147.536 -40.98)" fill="#117474"/><path d="M214.912,53.04l.227.317-.239.41-.23-.317Z" transform="translate(-152.202 -37.605)" fill="#117474"/><path d="M222.578,48.476l.227.317-.428-.006-.227-.317Z" transform="translate(-157.505 -34.365)" fill="#117474"/><path d="M223.658,41.93l.23.317-.041,1.909-.227-.317Z" transform="translate(-158.547 -29.728)" fill="#117474"/><path d="M216.3,53.055l.23.314-.806-.012-.227-.317Z" transform="translate(-152.79 -37.605)" fill="#117474"/><path d="M200.517,59.82l.23.317-.047,2.2-.23-.317Z" transform="translate(-142.134 -42.413)" fill="#117474"/><path d="M219.03,51.87l.23.314.506,1.018-.23-.317Z" transform="translate(-155.293 -36.776)" fill="#117474"/><path d="M206.424,58.94l.23.317-.047,2.15-.227-.317Z" transform="translate(-146.324 -41.789)" fill="#117474"/><path d="M226.669,40.75l.227.317-.076,3.652-.23-.317Z" transform="translate(-160.653 -28.892)" fill="#117474"/><path d="M207.948,57.8l.23.317-.061,2.846-.227-.317Z" transform="translate(-147.395 -40.98)" fill="#117474"/><path d="M205.926,67.545l.227.317-.806-.015-.227-.317Z" transform="translate(-145.431 -47.879)" fill="#117474"/><path d="M212.747,64.242l.227.317-.7-.012-.23-.317Z" transform="translate(-150.337 -45.539)" fill="#117474"/><path d="M214.528,54.45l.23.317-.061,2.858-.227-.317Z" transform="translate(-152.06 -38.605)" fill="#117474"/><path d="M226.267,52.08l.227.317-1,1.74-.23-.317Z" transform="translate(-159.71 -36.925)" fill="#117474"/><path d="M246.36,40.09l.23.317.48.768-.23-.317Z" transform="translate(-174.67 -28.424)" fill="#973f05"/><path d="M248.01,42.73l.23.317.038.058-.23-.317Z" transform="translate(-175.84 -30.296)" fill="#973f05"/><g transform="translate(72.88 10.854)"><path d="M250.45,37.3l.23.317.512.824c.634,1.039,1.568,2.578,1.688,2.8l-.233-.317c-.119-.218-1.053-1.746-1.691-2.8C250.735,37.766,250.552,37.466,250.45,37.3Z" transform="translate(-250.45 -37.3)" fill="#117474"/><g clip-path="url(#k)"><path d="M250.45,37.3l.23.317.512.824c.634,1.039,1.568,2.578,1.688,2.8l-.233-.317c-.119-.218-1.053-1.746-1.691-2.8-.215-.358-.4-.658-.5-.824" transform="translate(-250.45 -37.3)" fill="#117474"/></g></g><g transform="translate(73.375 11.319)"><path d="M253.9,38.9l.227.317a4.041,4.041,0,0,0-1.746.358l-.23-.317A4.058,4.058,0,0,1,253.9,38.9Z" transform="translate(-252.15 -38.897)" fill="#117474"/><g clip-path="url(#l)"><g transform="translate(0 0)"><path d="M253.9,38.9l.227.317a4.041,4.041,0,0,0-1.746.358l-.23-.317A4.055,4.055,0,0,1,253.9,38.9" transform="translate(-252.15 -38.897)" fill="#117474"/></g></g></g><path d="M258.175,38.9l.23.317h-.017l-.227-.317Z" transform="translate(-183.036 -27.58)" fill="#117474"/><g transform="translate(76.724 10.767)"><path d="M264,37l.227.317-.34.5-.227-.317C263.785,37.326,263.9,37.157,264,37Z" transform="translate(-263.66 -37)" fill="#117474"/><g clip-path="url(#m)"><path d="M264,37l.227.317-.34.5-.227-.317c.125-.186.239-.355.34-.5" transform="translate(-263.66 -37)" fill="#117474"/></g></g><path d="M263.256,38.76l.227.317-.166.244L263.09,39Z" transform="translate(-186.532 -27.481)" fill="#117474"/><path d="M250.963,36.924l-.5-.821a5.013,5.013,0,0,1,2.258-.495h.017a4.949,4.949,0,0,1,1.906.4c-.1.146-.215.314-.34.5l-.166.244-.044.061a4.078,4.078,0,0,0-1.376-.265h0A4.06,4.06,0,0,0,250.963,36.924Z" transform="translate(-177.577 -25.246)" fill="#fff"/><g transform="translate(76.515 11.524)"><path d="M262.984,39.6l.227.317-.041.061-.23-.317Z" transform="translate(-262.94 -39.6)" fill="#117474"/><g clip-path="url(#n)"><g transform="translate(0)"><path d="M262.984,39.6l.227.317-.041.061-.23-.317.044-.061" transform="translate(-262.94 -39.6)" fill="#117474"/></g></g></g><g transform="translate(75.138 11.323)"><path d="M259.586,39.172l.23.317a4.076,4.076,0,0,0-1.376-.262l-.23-.317A4.076,4.076,0,0,1,259.586,39.172Z" transform="translate(-258.21 -38.91)" fill="#117474"/><g clip-path="url(#o)"><path d="M259.586,39.172l.23.317a4.076,4.076,0,0,0-1.376-.262l-.23-.317a4.078,4.078,0,0,1,1.376.265" transform="translate(-258.21 -38.91)" fill="#117474"/></g></g><g transform="translate(77.929 11.265)"><path d="M268.12,38.954l.23.317q-.157-.131-.323-.244l-.227-.317A3.667,3.667,0,0,1,268.12,38.954Z" transform="translate(-267.8 -38.71)" fill="#117474"/><g clip-path="url(#p)"><path d="M268.12,38.954l.23.317q-.157-.131-.323-.244l-.227-.317a3.667,3.667,0,0,1,.32.244" transform="translate(-267.8 -38.71)" fill="#117474"/></g></g><path d="M267.539,39.55l.23.317-.559.774-.23-.317Z" transform="translate(-189.29 -28.041)" fill="#117474"/><g transform="translate(71.102 12.493)"><path d="M245.281,48.118l-.227-.317a3.76,3.76,0,0,1,.39-4.871l.23.317a3.757,3.757,0,0,0-.393,4.871Z" transform="translate(-244.338 -42.93)" fill="#117474"/><g clip-path="url(#q)"><g transform="translate(-0.002)"><path d="M247.126,42.93l.23.317a3.97,3.97,0,0,0-.416.492l-.23-.314a3.8,3.8,0,0,1,.416-.495" transform="translate(-246.017 -42.93)" fill="#117474"/><path d="M245.866,44.63l.23.314a3.611,3.611,0,0,0-.346.6l-.23-.317a4.032,4.032,0,0,1,.346-.582" transform="translate(-245.174 -44.135)" fill="#117474"/><path d="M245.031,46.68l.23.317a3.933,3.933,0,0,0-.2.544l-.227-.317a3.59,3.59,0,0,1,.2-.544" transform="translate(-244.685 -45.589)" fill="#117474"/><path d="M244.554,48.55l.227.317a3.548,3.548,0,0,0-.113.556l-.227-.317a3.546,3.546,0,0,1,.113-.556" transform="translate(-244.408 -46.915)" fill="#117474"/><path d="M244.362,50.46l.227.317a3.684,3.684,0,0,0-.029.4v.212l-.23-.317v-.212a3.139,3.139,0,0,1,.029-.4" transform="translate(-244.33 -48.269)" fill="#117474"/><path d="M244.34,52.58l.23.317a3.822,3.822,0,0,0,.1.76l-.227-.317a3.633,3.633,0,0,1-.108-.76" transform="translate(-244.337 -49.772)" fill="#117474"/><path d="M244.71,55.19l.227.317a3.851,3.851,0,0,0,.608,1.3l-.227-.317a3.714,3.714,0,0,1-.608-1.3" transform="translate(-244.6 -51.622)" fill="#117474"/></g></g></g><g transform="translate(77.696 12.286)"><path d="M267.623,42.9l.23.317a3.857,3.857,0,0,0-.626-.681L267,42.22A3.862,3.862,0,0,1,267.623,42.9Z" transform="translate(-267 -42.22)" fill="#117474"/><g clip-path="url(#r)"><path d="M267.623,42.9l.23.317a3.857,3.857,0,0,0-.626-.681L267,42.22a3.857,3.857,0,0,1,.626.681" transform="translate(-267 -42.22)" fill="#117474"/></g></g><path d="M262.06,42.21l.23.317-2.022,2.8-.227-.317Z" transform="translate(-184.369 -29.927)" fill="#117474"/><path d="M247.507,60.71l.23.314-.047.067-.23-.317Z" transform="translate(-175.45 -43.044)" fill="#117474"/><path d="M243.048,40.858l.035.058a3.768,3.768,0,0,0-.151,5.174l-.047.064-.515.736a4.714,4.714,0,0,1,.053-6.667q.051-.05.1-.1l.038-.035Z" transform="translate(-170.881 -28.424)" fill="#fff"/><path d="M246.205,60.93l.23.317-.515.736-.23-.317Z" transform="translate(-174.195 -43.2)" fill="#117474"/><g transform="translate(71.035 17.923)"><path d="M244.34,61.9l-.23-.314a4.851,4.851,0,0,0,.46.544l.23.317A4.617,4.617,0,0,1,244.34,61.9Z" transform="translate(-244.11 -61.59)" fill="#117474"/><g clip-path="url(#s)"><path d="M244.57,62.134l.23.317a4.617,4.617,0,0,1-.46-.547l-.23-.314a4.851,4.851,0,0,0,.46.544" transform="translate(-244.11 -61.59)" fill="#117474"/></g></g><g transform="translate(74.062 15.746)"><path d="M255.444,54.11l.227.317c-.259.407-.5.786-.931,1.4l-.23-.314C254.944,54.9,255.182,54.517,255.444,54.11Z" transform="translate(-254.51 -54.11)" fill="#117474"/><g clip-path="url(#t)"><path d="M255.444,54.11l.227.317c-.259.407-.5.786-.931,1.4l-.23-.314c.437-.617.672-1,.934-1.4" transform="translate(-254.51 -54.11)" fill="#117474"/></g></g><path d="M252.312,58.92l.23.317-.9,1.391-.23-.317Z" transform="translate(-178.25 -41.774)" fill="#117474"/><g transform="translate(71.804 18.749)"><path d="M247.565,65.015l.23.314a4.559,4.559,0,0,1-.818-.582l-.227-.317A4.7,4.7,0,0,0,247.565,65.015Z" transform="translate(-246.75 -64.43)" fill="#117474"/><g clip-path="url(#u)"><path d="M247.565,65.015l.23.314a4.559,4.559,0,0,1-.818-.582l-.227-.317a4.7,4.7,0,0,0,.815.582" transform="translate(-246.75 -64.43)" fill="#117474"/></g></g><path d="M250.091,63.7l.23.317-.541.794-.23-.314Z" transform="translate(-176.932 -45.163)" fill="#117474"/><g transform="translate(79.099 12.411)"><path d="M271.82,42.65l.227.317a4.672,4.672,0,0,1,.893,2.788l-.23-.317A4.657,4.657,0,0,0,271.82,42.65Z" transform="translate(-271.82 -42.65)" fill="#117474"/><g clip-path="url(#v)"><path d="M271.82,42.65l.227.317a4.753,4.753,0,0,1,.757,1.621l-.23-.314a4.687,4.687,0,0,0-.754-1.624" transform="translate(-271.82 -42.65)" fill="#117474"/><path d="M274.41,48.23l.23.314a4.689,4.689,0,0,1,.134.952l-.23-.317a4.426,4.426,0,0,0-.134-.949" transform="translate(-273.656 -46.606)" fill="#117474"/><path d="M274.87,51.49l.23.317v.215l-.23-.317V51.49" transform="translate(-273.983 -48.918)" fill="#117474"/></g></g><g transform="translate(76.407 18.766)"><path d="M262.57,64.49l.227.317c0,.023.029.044.038.061l-.227-.317A.551.551,0,0,1,262.57,64.49Z" transform="translate(-262.57 -64.49)" fill="#117474"/><g clip-path="url(#w)"><path d="M262.57,64.49l.227.317c0,.023.029.044.038.061l-.227-.317a.551.551,0,0,1-.038-.061" transform="translate(-262.57 -64.49)" fill="#117474"/></g></g><g transform="translate(72.613 19.334)"><path d="M251.861,67.069l.227.317a4.947,4.947,0,0,1-2.328-.629l-.23-.317A4.947,4.947,0,0,0,251.861,67.069Z" transform="translate(-249.53 -66.44)" fill="#117474"/><g clip-path="url(#x)"><path d="M251.861,67.069l.227.317a4.947,4.947,0,0,1-2.328-.629l-.23-.317a4.946,4.946,0,0,0,2.328.629" transform="translate(-249.53 -66.44)" fill="#117474"/></g></g><path d="M257.557,68.6l.23.314h-.02l-.227-.317Z" transform="translate(-182.597 -48.638)" fill="#783204"/><path d="M260.04,51.82l.227.317,1.967,2.974-.227-.317Z" transform="translate(-184.369 -36.741)" fill="#973f05"/><g transform="translate(76.445 18.828)"><path d="M262.7,64.7l.227.317c.052.081.367.538.509.748l-.227-.317C263.078,65.238,262.752,64.787,262.7,64.7Z" transform="translate(-262.7 -64.7)" fill="#117474"/><g clip-path="url(#y)"><path d="M262.7,64.7l.227.317c.052.081.367.538.509.748l-.227-.317c-.146-.21-.457-.666-.509-.748" transform="translate(-262.7 -64.7)" fill="#117474"/></g></g><g transform="translate(67.91 8.301)"><path d="M246.4,31.486l.23.317a7.223,7.223,0,0,0-5.616-2.957h-.151a6.76,6.76,0,0,0-6.306,3.562,6.439,6.439,0,0,0,.253,7.15c.34.495.684.978,1.03,1.455l-.227-.317c-.349-.483-.693-.966-1.03-1.455a6.438,6.438,0,0,1-.256-7.153,6.734,6.734,0,0,1,6.309-3.562h.148A7.22,7.22,0,0,1,246.4,31.486Z" transform="translate(-233.37 -28.525)" fill="#117474"/><g clip-path="url(#z)"><g transform="translate(-0.004 0.003)"><path d="M249.793,31.493l.23.317a7.223,7.223,0,0,0-5.616-2.957h-.151a6.725,6.725,0,0,0-5.878,2.887l-.227-.317a6.722,6.722,0,0,1,5.878-2.887h.148a7.22,7.22,0,0,1,5.616,2.957" transform="translate(-236.755 -28.535)" fill="#7f3e14"/><path d="M236.321,38.45l.227.317c-.151.215-.291.439-.428.675s-.224.41-.32.617l-.23-.317c.1-.207.2-.413.32-.617s.291-.46.431-.675" transform="translate(-234.926 -35.565)" fill="#127878"/><path d="M234.606,42.89l.23.317a7.33,7.33,0,0,0-.4,1.059l-.23-.317a7.337,7.337,0,0,1,.4-1.059" transform="translate(-233.962 -38.713)" fill="#127d7d"/><path d="M233.728,46.53l.23.317a6.356,6.356,0,0,0-.2.969l-.227-.317a6.745,6.745,0,0,1,.2-.969" transform="translate(-233.48 -41.294)" fill="#138181"/><path d="M233.407,49.86l.227.317a6.021,6.021,0,0,0-.044,1l-.23-.314a6.089,6.089,0,0,1,.047-1" transform="translate(-233.357 -43.655)" fill="#148686"/><path d="M233.37,53.3l.23.314a5.97,5.97,0,0,0,.178,1.257l-.224-.317a6.167,6.167,0,0,1-.178-1.254" transform="translate(-233.366 -46.094)" fill="#148a8a"/><path d="M234,57.61l.23.317a6.9,6.9,0,0,0,1.036,2.249c.34.495.684.978,1.03,1.455l-.227-.317c-.349-.483-.693-.966-1.03-1.455A6.914,6.914,0,0,1,234,57.61" transform="translate(-233.813 -49.149)" fill="#158f8f"/></g></g></g><path d="M253.332,63.937a.547.547,0,0,0,.038.061c.052.081.364.538.509.748a4.945,4.945,0,0,1-1.993.39h-.017a4.946,4.946,0,0,1-2.328-.629l.538-.8a4.028,4.028,0,0,0,1.807.471h.015A3.957,3.957,0,0,0,253.332,63.937Z" transform="translate(-176.925 -45.171)" fill="#fff"/><g transform="translate(74.961 19.575)"><path d="M259.593,67.27l.227.317a4.864,4.864,0,0,1-1.99.387l-.23-.314A4.945,4.945,0,0,0,259.593,67.27Z" transform="translate(-257.6 -67.27)" fill="#117474"/><g clip-path="url(#aa)"><path d="M259.593,67.27l.227.317a4.864,4.864,0,0,1-1.99.387l-.23-.314a4.945,4.945,0,0,0,1.993-.39" transform="translate(-257.6 -67.27)" fill="#117474"/></g></g><path d="M266.8,62.04l.227.317.538.794-.227-.314Z" transform="translate(-189.162 -43.987)" fill="#973f05"/><g transform="translate(77.341 18.848)"><path d="M266.615,64.77l.227.317c-.064.055-.134.1-.2.154a4.6,4.6,0,0,1-.634.393l-.227-.317a5.092,5.092,0,0,0,.646-.39C266.481,64.878,266.548,64.837,266.615,64.77Z" transform="translate(-265.78 -64.77)" fill="#117474"/><g clip-path="url(#ab)"><path d="M266.615,64.77l.227.317c-.064.055-.134.1-.2.154a4.6,4.6,0,0,1-.634.393l-.227-.317a5.092,5.092,0,0,0,.646-.39c.07-.049.137-.1.2-.157" transform="translate(-265.78 -64.77)" fill="#117474"/></g></g><path d="M228.66,49.72l.227.317.986,1.522-.23-.317Z" transform="translate(-162.121 -35.252)" fill="#117474"/><g transform="translate(67.596 15.862)"><path d="M232.29,54.51l.227.317c.017.195.047.39.081.582l-.23-.317Q232.316,54.8,232.29,54.51Z" transform="translate(-232.29 -54.51)" fill="#117474"/><g clip-path="url(#ac)"><path d="M232.29,54.51l.227.317c.017.195.047.39.081.582l-.23-.317q-.052-.291-.079-.582" transform="translate(-232.29 -54.51)" fill="#117474"/></g></g><path d="M232.241,56.52l.23.317-.131.233-.23-.317Z" transform="translate(-164.567 -40.073)" fill="#117474"/><g transform="translate(69.793 20.539)"><path d="M240.07,70.9l.087.122-.23-.323-.087-.122C239.91,70.682,240,70.81,240.07,70.9Z" transform="translate(-239.84 -70.58)" fill="#117474"/><g clip-path="url(#ad)"><path d="M239.84,70.586l.23.317.087.122-.227-.323-.09-.122" transform="translate(-239.84 -70.58)" fill="#9d4d18"/></g></g><g transform="translate(77.987 15.199)"><path d="M270,52.23l.23.317a4.7,4.7,0,0,1-1.455,3.341c-.113.108-.23.212-.349.308-.067.055-.137.108-.207.157L268,56.036c.07-.049.137-.1.2-.154.122-.1.239-.2.349-.311A4.706,4.706,0,0,0,270,52.23Z" transform="translate(-268 -52.23)" fill="#117474"/><g clip-path="url(#ae)"><path d="M274.8,52.23l.23.317a4.121,4.121,0,0,1-.035.533l-.23-.317a4.079,4.079,0,0,0,.035-.533" transform="translate(-272.793 -52.23)" fill="#117474"/><path d="M274.42,54.06l.23.317a4.561,4.561,0,0,1-.14.681l-.23-.317a4.489,4.489,0,0,0,.14-.681" transform="translate(-272.453 -53.527)" fill="#117474"/><path d="M273.663,56.4l.23.317a4.658,4.658,0,0,1-.253.678l-.23-.317a4.651,4.651,0,0,0,.253-.678" transform="translate(-271.836 -55.187)" fill="#117474"/><path d="M272.347,58.73l.23.317a5.026,5.026,0,0,1-.436.754l-.23-.317a4.439,4.439,0,0,0,.436-.754" transform="translate(-270.772 -56.839)" fill="#117474"/><path d="M269.138,61.32l.23.317a5.373,5.373,0,0,1-.6.7c-.113.108-.23.212-.349.308-.067.055-.137.108-.207.157L268,62.481c.07-.049.137-.1.2-.154.122-.1.239-.2.349-.311a4.955,4.955,0,0,0,.6-.7" transform="translate(-268 -58.675)" fill="#117474"/></g></g><path d="M247.827,37.3c.1.166.291.466.5.824.637,1.039,1.571,2.578,1.691,2.8h.035c.143-.253,1.077-1.644,1.8-2.718.207-.291.393-.582.541-.794a4.589,4.589,0,0,1,.483.291,3.674,3.674,0,0,1,.32.244l-.553.786-2.037,2.8,1.979,2.962.538.794c-.067.055-.134.108-.2.157a5.078,5.078,0,0,1-.631.39c-.183-.268-.495-.722-.541-.8-.37-.582-1.6-2.5-1.8-2.852-.262.407-.5.786-.934,1.4l-.9,1.388-.541.8a4.7,4.7,0,0,1-.815-.582l.553-.792,2.037-2.861-1.883-2.91-.509-.815A4.9,4.9,0,0,1,247.827,37.3Z" transform="translate(-174.947 -26.446)" fill="#fff"/><path d="M267.355,46.3c.122-.1.239-.2.349-.311a4.676,4.676,0,0,0-.274-7.03,3.8,3.8,0,0,0-.326-.244,3.668,3.668,0,0,1,.32.244l-.553.777a3.734,3.734,0,0,1-.052,5.77l.535.792q-.1.082-.2.157A1.847,1.847,0,0,0,267.355,46.3Z" transform="translate(-189.176 -27.445)" fill="#fff"/><path d="M220.017,67.862l.227.317-.7-.012-.23-.317Z" transform="translate(-155.491 -48.106)" fill="#117474"/><path d="M221.859,48.47l.227.317-.119,5.651-.227-.317Z" transform="translate(-157.214 -34.365)" fill="#117474"/><path d="M205.767,40.651l-.079,3.652.6-1.042.972,1.536.073-.128q.026.291.079.582l-.131.233-.989-1.525-1,1.746.111-4.691h-.538l-.038,1.909H204.4l-.119,5.651h-.7l.073-3.53-.381-.768h-.8l-.242.41-.058,2.858h-.7l.1-4.784-.829,1.193-.035,1.67h-.387l-.058,2.846h-.806l.049-2.4-.582-.989-.762,1.164-.047,2.2-.989-.017v-.358h.655l.041-1.947,1.132-1.708.94,1.563-.047,2.15h.09l.061-2.846h.387l.029-1.42,1.566-2.261-.087,2.91.381-.655,1.231.023L204,44.891l.049-2.369h.428l.041-1.912Z" transform="translate(-139.752 -28.793)" fill="#fff"/><g transform="translate(81.214 11.058)"><path d="M279.09,38l.23.317a6.888,6.888,0,0,1,.582.934l-.227-.317A7.2,7.2,0,0,0,279.09,38Z" transform="translate(-279.09 -38)" fill="#117474"/><g clip-path="url(#af)"><path d="M279.09,38l.23.317a6.888,6.888,0,0,1,.582.934l-.227-.317a7.251,7.251,0,0,0-.582-.934" transform="translate(-279.09 -38)" fill="#158f8f"/></g></g><g transform="translate(69.883 20.661)"><path d="M240.377,71.323,240.15,71l.239.332c.722.992,1.455,1.979,2.232,3,.492.652,1.048,1.388,1.583,2.11l.227.317c-.535-.722-1.091-1.455-1.58-2.11-.768-1.021-1.51-2-2.232-3Z" transform="translate(-240.15 -71)" fill="#117474"/><g clip-path="url(#ag)"><path d="M244.2,76.445l.227.317c-.535-.722-1.091-1.455-1.58-2.11-.768-1.021-1.51-2-2.232-3l-.242-.332L240.15,71l.239.332c.722.992,1.455,1.979,2.232,3,.492.652,1.048,1.388,1.583,2.11" transform="translate(-240.15 -71)" fill="#7f3e14"/></g></g><path d="M209.665,70.075l.338.454-12.676-.221c-.017-.148-.032-.291-.047-.448Z" transform="translate(-139.872 -49.531)" fill="#1dc2c2"/><path d="M291.271,43.259l.227.317-.448-.009-.23-.317Z" transform="translate(-206.192 -30.664)" fill="#117474"/><path d="M283.51,55.16l.23.317.058.113-.23-.317Z" transform="translate(-201.009 -39.109)" fill="#117474"/><path d="M293.841,41.77l.227.317L294.027,44l-.227-.314Z" transform="translate(-208.305 -29.615)" fill="#117474"/><path d="M292.658,49.856l.227.317-.428-.006-.227-.317Z" transform="translate(-207.192 -35.344)" fill="#117474"/><path d="M287.31,50.45l.23.317.509.972-.23-.317Z" transform="translate(-203.704 -35.769)" fill="#117474"/><path d="M284.553,53.4l.227.314L283.73,55.2l-.23-.314Z" transform="translate(-201.002 -37.861)" fill="#117474"/><path d="M298.381,54.635l.23.317-.751-.015-.23-.317Z" transform="translate(-211.021 -38.726)" fill="#117474"/><path d="M302.34,44.96l.227.317,1.557,2.45-.227-.317Z" transform="translate(-214.36 -31.877)" fill="#117474"/><path d="M254.947,90.88l.23.317-.87-1.17-.227-.317Z" transform="translate(-180.143 -63.605)" fill="#117070"/><path d="M257.974,89.81l.23.317-.914,1.141-.23-.317Z" transform="translate(-182.256 -63.676)" fill="#7f3e14"/><path d="M307.619,53.38l.227.317-.029,1.388-.227-.317Z" transform="translate(-218.082 -37.847)" fill="#117474"/><path d="M310.981,58.07l.227.317-.588.9-.23-.317Z" transform="translate(-220.067 -41.172)" fill="#117474"/><path d="M310.27,61.15l.23.317-.052,2.436-.227-.317Z" transform="translate(-219.947 -43.355)" fill="#117474"/><path d="M308.036,69.485l.227.317-.893-.015-.23-.317Z" transform="translate(-217.763 -49.254)" fill="#117474"/><path d="M246.431,31.414a7.511,7.511,0,0,0-6.446-4.027h-.157a7.456,7.456,0,0,0-7.589,7.895q.026.291.079.582a7.167,7.167,0,0,0,1.164,2.759q.466.675.943,1.339l.349.454c.722.992,1.455,1.979,2.232,3,.492.652,1.048,1.388,1.583,2.11l.873,1.164.914-1.141c.582-.739,1.208-1.475,1.8-2.185.76-.9,1.531-1.827,2.273-2.782l.34-.442c.439-.582.873-1.164,1.263-1.769A6.98,6.98,0,0,0,247,36.184a6.59,6.59,0,0,0,.137-.716A6.853,6.853,0,0,0,246.431,31.414Zm-.94,6.719a55.518,55.518,0,0,1-3.684,4.743c-.567.681-1.164,1.382-1.723,2.092l-.614.765-.582-.786c-.509-.69-1.042-1.394-1.51-2.017-1.164-1.551-2.276-3.018-3.344-4.566a6.152,6.152,0,0,1-.242-6.836,6.449,6.449,0,0,1,6.027-3.4h.143a6.856,6.856,0,0,1,5.89,3.672,6.189,6.189,0,0,1-.358,6.329" transform="translate(-164.644 -19.416)" fill="#fff"/><g transform="translate(75.717 11.998)"><path d="M266.27,41.23l.227.317a6.834,6.834,0,0,1,.716,4.054c-.035.242-.079.48-.137.716a6.985,6.985,0,0,1-.969,2.188c-.4.6-.826,1.19-1.266,1.769-.111.148-.224.291-.338.442-.742.952-1.516,1.877-2.273,2.782-.6.71-1.211,1.455-1.8,2.185l-.23-.317c.582-.739,1.208-1.475,1.8-2.185.759-.905,1.531-1.827,2.273-2.782l.34-.442c.439-.582.873-1.164,1.263-1.769A6.987,6.987,0,0,0,266.835,46a6.568,6.568,0,0,0,.137-.716A6.854,6.854,0,0,0,266.27,41.23Z" transform="translate(-260.2 -41.23)" fill="#117474"/><g clip-path="url(#ah)"><g transform="translate(0.012)"><path d="M281.018,41.23l.227.317a7.068,7.068,0,0,1,.582,1.522l-.244-.317A7.214,7.214,0,0,0,281,41.23" transform="translate(-274.959 -41.23)" fill="#7f3e14"/><path d="M283,46.46l.227.317a6.83,6.83,0,0,1,.2,1.385l-.23-.314A6.853,6.853,0,0,0,283,46.46" transform="translate(-276.377 -44.938)" fill="#7f3e14"/><path d="M283.579,51.23l.23.314a6.879,6.879,0,0,1-.049,1.094l-.23-.311a6.511,6.511,0,0,0,.049-1.091" transform="translate(-276.753 -48.32)" fill="#7f3e14"/><path d="M283.048,55l.23.317a.306.306,0,0,0,0,.052c-.035.242-.079.48-.137.716-.02.079-.041.157-.064.233L282.85,56c.02-.076.044-.154.061-.233a6.575,6.575,0,0,0,.137-.716.313.313,0,0,0,0-.052" transform="translate(-276.271 -50.993)" fill="#7f3e14"/><path d="M281.915,58.42l.227.317a6.766,6.766,0,0,1-.372,1.016l-.23-.317a6.773,6.773,0,0,0,.375-1.007" transform="translate(-275.342 -53.418)" fill="#7f3e14"/><path d="M279.03,61.88l.23.317a7.492,7.492,0,0,1-.533.949c-.166.25-.338.5-.509.742L278,63.571c.175-.244.343-.492.509-.742a6.511,6.511,0,0,0,.533-.949" transform="translate(-272.832 -55.871)" fill="#7f3e14"/><path d="M265.408,67.69l.23.317c-.247.346-.5.69-.757,1.027-.111.148-.224.291-.338.442-.742.952-1.516,1.877-2.273,2.782-.6.71-1.211,1.455-1.8,2.185l-.23-.317c.582-.739,1.208-1.475,1.8-2.185.759-.905,1.531-1.827,2.273-2.782l.34-.442c.256-.338.509-.681.754-1.027" transform="translate(-260.24 -59.99)" fill="#7f3e14"/></g></g></g><g transform="translate(68.725 9.248)"><path d="M252.14,78.95h.157l.2.259h-.154Z" transform="translate(-247.493 -65.224)" fill="#914716"/><g transform="translate(4.845 13.988)"><g clip-path="url(#ai)"><path d="M252.82,79.85h.154c.378.5.8,1.062,1.208,1.615h-.146c-.407-.553-.829-1.115-1.2-1.615" transform="translate(-252.82 -79.85)" fill="#924716"/></g></g><path d="M257.108,86.65h.154l-.178.224h-.154Z" transform="translate(-250.889 -70.683)" fill="#6f3611"/><g transform="translate(0.348 0.353)"><g clip-path="url(#aj)"><g transform="translate(-0.003 0)"><path d="M245.819,32.993h.157a5.528,5.528,0,0,0-4.81,2.511H241a5.544,5.544,0,0,1,4.819-2.511" transform="translate(-239.94 -32.99)" fill="#6f3611"/><path d="M239.7,41.64h.157c-.1.143-.186.291-.273.442s-.183.335-.262.5h-.154c.076-.169.163-.335.259-.5s.178-.291.274-.442" transform="translate(-238.642 -39.123)" fill="#743812"/><path d="M238.484,44.89h.154a6.371,6.371,0,0,0-.291.748h-.157a5.936,5.936,0,0,1,.291-.748" transform="translate(-237.947 -41.427)" fill="#783a12"/><path d="M237.81,47.46h.157a5.421,5.421,0,0,0-.16.658h-.157a5.427,5.427,0,0,1,.16-.658" transform="translate(-237.565 -43.249)" fill="#7c3c13"/><path d="M237.466,49.72h.157a5.286,5.286,0,0,0-.076.631h-.157a5.3,5.3,0,0,1,.076-.631" transform="translate(-237.38 -44.852)" fill="#803e14"/><path d="M237.366,51.89h.157a5.4,5.4,0,0,0,0,.652h-.157a5.426,5.426,0,0,1,0-.652" transform="translate(-237.356 -46.39)" fill="#854014"/><path d="M237.41,54.13h.172a5.489,5.489,0,0,0,.113.754h-.154a5.075,5.075,0,0,1-.116-.754" transform="translate(-237.394 -47.978)" fill="#894315"/><path d="M237.81,56.72h.154a5.382,5.382,0,0,0,.428,1.187h-.154a5.1,5.1,0,0,1-.428-1.187" transform="translate(-237.678 -49.815)" fill="#8d4516"/><path d="M239.28,60.8h.154a6.348,6.348,0,0,0,.439.748c1.071,1.536,2.148,2.991,3.306,4.548h-.157c-1.164-1.542-2.249-3-3.3-4.534a5.963,5.963,0,0,1-.439-.748" transform="translate(-238.72 -52.707)" fill="#924716"/></g></g></g><g transform="translate(6.23)"><g clip-path="url(#ak)"><path d="M257.58,31.78h0" transform="translate(-257.58 -31.78)" fill="#783a12"/></g></g><g transform="translate(6.352 0.003)"><g clip-path="url(#al)"><path d="M258,31.79h0" transform="translate(-258 -31.79)" fill="#783a12"/><path d="M258.25,31.79h0" transform="translate(-258 -31.79)" fill="#7c3c13"/></g></g><g transform="translate(6.472 0.006)"><g clip-path="url(#am)"><path d="M258.41,31.8h.154a6.446,6.446,0,0,1,.792.073H259.2a6.448,6.448,0,0,0-.789-.073" transform="translate(-258.41 -31.8)" fill="#7c3c13"/><path d="M261.12,32.05h.157a6.485,6.485,0,0,1,.783.172H261.9a6.482,6.482,0,0,0-.783-.172" transform="translate(-260.331 -31.977)" fill="#803e14"/><path d="M263.81,32.64h.157a6.231,6.231,0,0,1,.789.291H264.6a6.042,6.042,0,0,0-.789-.291" transform="translate(-262.239 -32.396)" fill="#854014"/><path d="M266.52,33.61h.157a6.071,6.071,0,0,1,.856.445h-.157a6.068,6.068,0,0,0-.853-.445" transform="translate(-264.16 -33.083)" fill="#894315"/><path d="M269.45,35.14h.16a6.17,6.17,0,0,1,1.141.917H270.6a6.2,6.2,0,0,0-1.144-.917" transform="translate(-266.237 -34.168)" fill="#8d4516"/><path d="M273.38,38.29h.154a6.041,6.041,0,0,1,1.074,1.493h-.154a6.2,6.2,0,0,0-1.074-1.493" transform="translate(-269.024 -36.401)" fill="#924716"/></g></g><path d="M248.072,35.2a5.681,5.681,0,0,1-.311,5.782,54.907,54.907,0,0,1-3.635,4.7c-.582.681-1.164,1.385-1.726,2.1l-.178.224-.169-.227c-.439-.582-.905-1.216-1.312-1.746l-.195-.259c-1.164-1.548-2.255-3.006-3.317-4.551a5.638,5.638,0,0,1-.215-6.259,5.913,5.913,0,0,1,5.4-3.134h.242A6.3,6.3,0,0,1,248.072,35.2Zm-.623,5.584a5.317,5.317,0,0,0,.311-5.415,5.93,5.93,0,0,0-5.107-3.2h-.259a5.578,5.578,0,0,0-5.084,2.954,5.294,5.294,0,0,0,.2,5.881c1.053,1.536,2.148,2.991,3.3,4.534l.2.262c.375.5.8,1.062,1.2,1.615.538-.669,1.085-1.327,1.618-1.967a53.746,53.746,0,0,0,3.611-4.656" transform="translate(-236.17 -31.809)" fill="#fff"/><g transform="translate(6.219 3.387)"><g clip-path="url(#an)"><path d="M277.07,43.42h.154l.035.067H277.1c0-.023-.02-.047-.032-.067" transform="translate(-271.387 -43.42)" fill="#924716"/><path d="M277.18,43.65h.157a5.979,5.979,0,0,1,.463,1.292h-.157a5.674,5.674,0,0,0-.463-1.292" transform="translate(-271.465 -43.583)" fill="#8d4516"/><path d="M278.77,48.09h.157a5.584,5.584,0,0,1,.128.847H278.9a5.58,5.58,0,0,0-.128-.847" transform="translate(-272.592 -46.731)" fill="#894315"/><path d="M279.21,51h.157a6.114,6.114,0,0,1,0,.73h-.157a5.566,5.566,0,0,0,0-.73" transform="translate(-272.904 -48.794)" fill="#854014"/><path d="M279.07,53.51h.157a6.01,6.01,0,0,1-.081.681H279a6,6,0,0,0,.081-.681" transform="translate(-272.755 -50.574)" fill="#803e14"/><path d="M278.6,55.85h.157a5.61,5.61,0,0,1-.166.675h-.154a6.182,6.182,0,0,0,.163-.675" transform="translate(-272.358 -52.233)" fill="#7c3c13"/><path d="M277.734,58.17h.154a5.372,5.372,0,0,1-.271.71h-.157a5.83,5.83,0,0,0,.274-.71" transform="translate(-271.663 -53.878)" fill="#783a12"/><path d="M276.127,60.61h.157a5.759,5.759,0,0,1-.439.78c-.035.055-.07.111-.108.163h-.157c.038-.052.073-.108.111-.163a6.053,6.053,0,0,0,.437-.78" transform="translate(-270.33 -55.608)" fill="#743812"/><path d="M262.79,63.85h.157a56.885,56.885,0,0,1-3.527,4.534c-.567.681-1.164,1.385-1.726,2.1h-.154c.582-.716,1.164-1.42,1.726-2.1,1.208-1.455,2.459-2.954,3.524-4.534" transform="translate(-257.54 -57.905)" fill="#6f3611"/></g></g></g><g transform="translate(56.422)"><g transform="translate(18.757 34.259)"><g clip-path="url(#ao)"><g transform="translate(0.012)"><path d="M258.39,125.2l.291-.16a17.611,17.611,0,0,0,1.761-.087l-.291.16a17.608,17.608,0,0,1-1.761.087" transform="translate(-258.39 -122.849)" fill="#117171"/><path d="M264.44,124.4l.291-.16a16.608,16.608,0,0,0,1.915-.291l-.291.16a16.606,16.606,0,0,1-1.915.291" transform="translate(-262.68 -122.14)" fill="#106d6d"/><path d="M271,122.468l.291-.16a16.584,16.584,0,0,0,2.276-.658l-.291.16a17.172,17.172,0,0,1-2.276.658" transform="translate(-267.331 -120.509)" fill="#106969"/><path d="M278.84,119.031l.291-.16a17.1,17.1,0,0,0,2.482-1.141l-.291.16a17.1,17.1,0,0,1-2.482,1.141" transform="translate(-272.889 -117.73)" fill="#0f6565"/></g></g></g><g transform="translate(0.901 3.102)"><g clip-path="url(#ap)"><g transform="translate(0.003)"><path d="M213.344,10.82l.291-.16a17.461,17.461,0,0,0-5.9,5.418l-.291.16a17.461,17.461,0,0,1,5.9-5.418" transform="translate(-204.402 -10.66)" fill="#0f6565"/><path d="M204.476,29.44l.291-.16a17.257,17.257,0,0,0-1.216,2.086l-.291.16a17.258,17.258,0,0,1,1.216-2.086" transform="translate(-201.438 -23.862)" fill="#106969"/><path d="M201.417,36.61l.291-.16a17.687,17.687,0,0,0-.757,1.766l-.291.16a16.925,16.925,0,0,1,.757-1.766" transform="translate(-199.595 -28.945)" fill="#106d6d"/><path d="M199.405,42.68l.291-.16q-.291.818-.515,1.667l-.291.157q.218-.847.515-1.665" transform="translate(-198.34 -33.249)" fill="#117171"/><path d="M198.082,48.407l.291-.157q-.2.794-.332,1.621l-.291.16c.084-.55.2-1.091.332-1.624" transform="translate(-197.532 -37.311)" fill="#117474"/><path d="M197.318,53.98l.291-.16q-.125.8-.177,1.63l-.291.16c.035-.553.1-1.094.18-1.63" transform="translate(-197.099 -41.261)" fill="#127878"/><path d="M197.038,59.61l.291-.16c-.038.451-.038.914-.038,1.382v.308L197,61.3v-.308c0-.469,0-.934.032-1.391" transform="translate(-197 -45.252)" fill="#137c7c"/><path d="M197,65.42l.291-.16c.02.608.067,1.208.146,1.8l-.291.16a17.455,17.455,0,0,1-.146-1.8" transform="translate(-197 -49.372)" fill="#138080"/><path d="M197.54,71.61l.291-.16a18.1,18.1,0,0,0,.37,1.961l-.291.16a17.392,17.392,0,0,1-.37-1.961" transform="translate(-197.383 -53.76)" fill="#148484"/><path d="M198.81,78.34l.291-.16a17.659,17.659,0,0,0,.792,2.436l-.291.16a18.044,18.044,0,0,1-.789-2.436" transform="translate(-198.283 -58.532)" fill="#148888"/><path d="M201.52,86.71l.291-.16a18.174,18.174,0,0,0,6.018,7.767l-.291.16a18.219,18.219,0,0,1-6.018-7.767" transform="translate(-200.205 -64.466)" fill="#158c8c"/><path d="M222.2,113.4l.291-.16a17.574,17.574,0,0,0,2.15,1.371l-.291.16a18.413,18.413,0,0,1-2.15-1.371" transform="translate(-214.867 -83.39)" fill="#148888"/><path d="M229.583,118.11l.291-.16a17.719,17.719,0,0,0,1.81.853l-.291.16a18.1,18.1,0,0,1-1.813-.853" transform="translate(-220.099 -86.729)" fill="#148484"/><path d="M235.82,121.04l.291-.16q.815.329,1.667.582l-.291.16a16.466,16.466,0,0,1-1.667-.582" transform="translate(-224.523 -88.806)" fill="#138080"/><path d="M241.55,123.02l.291-.16a15.166,15.166,0,0,0,1.615.387l-.291.16c-.547-.1-1.085-.233-1.615-.387" transform="translate(-228.586 -90.21)" fill="#137c7c"/><path d="M247.1,124.35l.291-.16q.8.154,1.618.23l-.291.16q-.818-.079-1.615-.23" transform="translate(-232.521 -91.153)" fill="#127878"/><path d="M252.643,125.14l.291-.16c.547.052,1.1.079,1.665.079l-.291.16q-.844,0-1.667-.079" transform="translate(-236.449 -91.713)" fill="#117474"/><path d="M258.38,125.41l.285-.16h0l-.285.16h0" transform="translate(-240.519 -91.905)" fill="#117171"/></g></g></g><g transform="translate(9.398)"><g clip-path="url(#aq)"><g transform="translate(0 0)"><path d="M226.19,5.149l.291-.16a18.1,18.1,0,0,1,2.619-1.2l-.291.16a18.29,18.29,0,0,0-2.619,1.2" transform="translate(-226.19 -2.687)" fill="#0f6565"/><path d="M235.17,2.263l.291-.16a18.315,18.315,0,0,1,2.392-.693l-.291.16a17.924,17.924,0,0,0-2.392.693" transform="translate(-232.557 -1)" fill="#106969"/><path d="M243.39.809l.291-.16A18.362,18.362,0,0,1,245.689.32L245.4.48a17.6,17.6,0,0,0-2.008.329" transform="translate(-238.385 -0.227)" fill="#106d6d"/><path d="M250.3.253l.291-.16Q251.515,0,252.442,0l-.291.16A18.454,18.454,0,0,0,250.3.253" transform="translate(-243.284)" fill="#117171"/></g></g></g><g transform="translate(18.268 0)"><g clip-path="url(#ar)"><path d="M256.67.16l.285-.16h.006l-.288.16h0" transform="translate(-256.67)" fill="#117171"/><path d="M256.68.16l.291-.16q.873,0,1.746.084l-.291.157C257.844.189,257.262.16,256.68.16" transform="translate(-256.677)" fill="#117474"/><path d="M262.7.447l.291-.157a16.383,16.383,0,0,1,1.7.242L264.4.689q-.838-.157-1.7-.242" transform="translate(-260.945 -0.206)" fill="#127878"/><path d="M268.54,1.277l.291-.157a17.206,17.206,0,0,1,1.7.407l-.291.157c-.556-.16-1.123-.291-1.7-.407" transform="translate(-265.086 -0.794)" fill="#137c7c"/><path d="M274.37,2.677l.291-.157a18.04,18.04,0,0,1,1.746.605l-.291.16q-.873-.344-1.746-.608" transform="translate(-269.219 -1.787)" fill="#138080"/><path d="M280.4,4.76l.291-.16a18.341,18.341,0,0,1,1.906.9l-.291.16a18,18,0,0,0-1.9-.9" transform="translate(-273.495 -3.261)" fill="#148484"/><path d="M286.94,7.84l.291-.16a19.042,19.042,0,0,1,2.261,1.455l-.291.16a18.8,18.8,0,0,0-2.261-1.44" transform="translate(-278.132 -5.445)" fill="#148888"/><path d="M294.7,12.79l.291-.16A19.144,19.144,0,0,1,301.32,20.8l-.291.16A19.131,19.131,0,0,0,294.7,12.79" transform="translate(-283.633 -8.955)" fill="#158c8c"/><path d="M316.46,40.85l.291-.16a18.647,18.647,0,0,1,.829,2.561l-.291.16a18.646,18.646,0,0,0-.829-2.561" transform="translate(-299.061 -28.849)" fill="#148888"/><path d="M319.31,49.61l.291-.16a18.607,18.607,0,0,1,.39,2.063l-.291.16a19.238,19.238,0,0,0-.39-2.063" transform="translate(-301.082 -35.06)" fill="#148484"/><path d="M320.65,56.74l.291-.16a18.377,18.377,0,0,1,.151,1.889l-.291.16c-.02-.637-.07-1.269-.151-1.889" transform="translate(-302.032 -40.115)" fill="#138080"/><path d="M321.085,63.23l.291-.16V63.4c0,.492,0,.978-.035,1.455l-.291.16c.032-.483.044-.969.038-1.455V63.23" transform="translate(-302.316 -44.717)" fill="#137c7c"/><path d="M320.609,69.38l.291-.16q-.055.873-.189,1.714l-.291.16c.087-.565.151-1.135.186-1.714" transform="translate(-301.869 -49.077)" fill="#127878"/><path d="M319.579,75.27l.291-.16c-.09.582-.207,1.147-.349,1.705l-.291.16c.143-.559.262-1.129.352-1.705" transform="translate(-301.025 -53.253)" fill="#117474"/><path d="M317.9,81.13l.291-.16q-.231.873-.541,1.746l-.291.16q.31-.873.538-1.746" transform="translate(-299.699 -57.408)" fill="#117171"/><path d="M315.434,87.14l.291-.16a18.514,18.514,0,0,1-.794,1.859l-.291.16a18.828,18.828,0,0,0,.794-1.859" transform="translate(-297.771 -61.669)" fill="#106d6d"/><path d="M311.52,93.53l.291-.16a18.7,18.7,0,0,1-1.28,2.194l-.291.16a18.7,18.7,0,0,0,1.28-2.194" transform="translate(-294.651 -66.2)" fill="#106969"/><path d="M295.117,101.07l.291-.16A18.3,18.3,0,0,1,289.2,106.6l-.291.16a18.331,18.331,0,0,0,6.207-5.695" transform="translate(-279.528 -71.545)" fill="#0f6565"/></g></g><path d="M212.161.55a18.943,18.943,0,0,1,18.778,18.682,18.307,18.307,0,0,1-18.266,18.679,18.943,18.943,0,0,1-18.778-18.679A18.314,18.314,0,0,1,212.161.55Zm.5,36.447a17.42,17.42,0,0,0,17.373-17.751A18.021,18.021,0,0,0,212.175,1.478,17.419,17.419,0,0,0,194.8,19.232,18.005,18.005,0,0,0,212.655,37" transform="translate(-193.893 -0.39)" fill="#fff"/></g></svg>