<svg xmlns="http://www.w3.org/2000/svg" width="17.142" height="15.356" viewBox="0 0 17.142 15.356">
  <path id="Icon_awesome-share-square_-_Outline" data-name="Icon awesome-share-square - Outline" d="M11.424-.5a1.2,1.2,0,0,1,.823.329l4.018,3.794a1.205,1.205,0,0,1,0,1.752L12.246,9.17a1.2,1.2,0,0,1-.823.329,1.209,1.209,0,0,1-1.21-1.206V6.831c-1.954.061-3.056.389-3.541,1.045-.439.594-.441,1.587-.007,3.036a.968.968,0,0,1-.149.864,1,1,0,0,1-.23.223h3.927V10.613a.862.862,0,0,1,.26-.62.873.873,0,0,1,.612-.25.883.883,0,0,1,.125.009,1.471,1.471,0,0,0,.7-.069.87.87,0,0,1,1.161.82v2.478A1.877,1.877,0,0,1,11.2,14.856H1.375A1.877,1.877,0,0,1-.5,12.981V3.16A1.877,1.877,0,0,1,1.375,1.286H4.752a.87.87,0,0,1,.4,1.642,4.929,4.929,0,0,0-1.285.947.874.874,0,0,1-.627.268H2.357V12h2.8l-.031-.022A5.9,5.9,0,0,1,2.848,7.55,4.575,4.575,0,0,1,5.284,3.162a11.17,11.17,0,0,1,4.929-.975V.706A1.209,1.209,0,0,1,11.424-.5Zm0,8.928a.121.121,0,0,0,.087-.037L15.528,4.6a.134.134,0,0,0,0-.195L11.511.608a.121.121,0,0,0-.087-.037.137.137,0,0,0-.139.134V3.248l-.533,0a10.989,10.989,0,0,0-4.967.858A3.492,3.492,0,0,0,3.919,7.55a4.825,4.825,0,0,0,1.64,3.394c-.458-1.672-.377-2.854.252-3.7.759-1.026,2.234-1.472,4.935-1.49l.539,0V8.294A.137.137,0,0,0,11.424,8.428Zm-7.4-6.071H1.375a.8.8,0,0,0-.8.8v9.821a.8.8,0,0,0,.8.8H11.2a.8.8,0,0,0,.8-.8v-2.21a2.533,2.533,0,0,1-.714.063V13.07h-10v-10H3.157A5.777,5.777,0,0,1,4.022,2.357Z" transform="translate(0.5 0.5)" fill="#fff"/>
</svg>
