<svg xmlns="http://www.w3.org/2000/svg" width="9" height="9" viewBox="0 0 9 9">
  <path id="phone" d="M8.508-2.742a.489.489,0,0,1,.34.141A.459.459,0,0,1,9-2.25V-.492a.471.471,0,0,1-.152.34A.471.471,0,0,1,8.508,0,8.366,8.366,0,0,1,4.23-1.137,8.4,8.4,0,0,1,1.137-4.23,8.366,8.366,0,0,1,0-8.508a.471.471,0,0,1,.152-.34A.471.471,0,0,1,.492-9H2.25a.459.459,0,0,1,.352.152.489.489,0,0,1,.141.34,5.6,5.6,0,0,0,.281,1.781.479.479,0,0,1-.117.516l-1.1,1.1a7.353,7.353,0,0,0,3.3,3.3l1.1-1.1a.479.479,0,0,1,.516-.117A5.6,5.6,0,0,0,8.508-2.742ZM7.992-4.5a3.367,3.367,0,0,0-1.02-2.473A3.367,3.367,0,0,0,4.5-7.992V-9A4.34,4.34,0,0,1,7.688-7.687,4.34,4.34,0,0,1,9-4.5ZM6-4.5a1.449,1.449,0,0,0-.434-1.066A1.449,1.449,0,0,0,4.5-6V-7.008a2.414,2.414,0,0,1,1.77.738A2.414,2.414,0,0,1,7.008-4.5Z" transform="translate(0 9)" fill="#d66821"/>
</svg>
