<?xml version="1.0" standalone="no"?>
<!DOCTYPE svg PUBLIC "-//W3C//DTD SVG 20010904//EN"
 "http://www.w3.org/TR/2001/REC-SVG-20010904/DTD/svg10.dtd">
<svg version="1.0" xmlns="http://www.w3.org/2000/svg"
 width="128.000000pt" height="128.000000pt" viewBox="0 0 128.000000 128.000000"
 preserveAspectRatio="xMidYMid meet">

<g transform="translate(0.000000,128.000000) scale(0.100000,-0.100000)"
fill="#000000" stroke="none">
<path d="M0 976 l0 -213 33 -5 c17 -3 215 -30 440 -59 224 -30 407 -56 407
-59 0 -3 -197 -31 -437 -63 -241 -32 -439 -59 -440 -61 -2 -2 -2 -98 -1 -213
l3 -210 633 271 c347 149 632 273 632 276 0 3 -262 117 -582 254 -321 138
-607 260 -635 273 l-53 23 0 -214z"/>
</g>
</svg>
