<svg xmlns="http://www.w3.org/2000/svg" width="15" height="13.214" viewBox="0 0 15 13.214">
  <path id="share" d="M-1528.375,9914.212h-9.82a.8.8,0,0,1-.805-.8v-9.82a.806.806,0,0,1,.805-.806h2.644a5.991,5.991,0,0,0-.864.715h-1.871v10h10v-2.234c.036,0,.075,0,.121,0a2.69,2.69,0,0,0,.594-.067v2.21A.8.8,0,0,1-1528.375,9914.212Zm-5.638-2.841,0,0a4.823,4.823,0,0,1-1.637-3.392,3.5,3.5,0,0,1,1.866-3.441,10.992,10.992,0,0,1,4.966-.855l.533,0v-2.541c0-.129.137-.136.139-.136a.125.125,0,0,1,.088.038l4.017,3.8a.126.126,0,0,1,.043.1.135.135,0,0,1-.043.1l-4.017,3.794a.128.128,0,0,1-.088.036s-.139-.006-.139-.136v-2.546l-.539,0c-2.7.019-4.177.464-4.934,1.49-.629.851-.71,2.026-.254,3.7Z" transform="translate(1539 -9900.998)"/>
</svg>
