<svg xmlns="http://www.w3.org/2000/svg" xmlns:xlink="http://www.w3.org/1999/xlink" width="46.925" height="52.948" viewBox="0 0 46.925 52.948">
  <defs>
    <filter id="snow" x="0" y="0" width="46.925" height="52.948" filterUnits="userSpaceOnUse">
      <feOffset dy="3" input="SourceAlpha"/>
      <feGaussianBlur stdDeviation="3" result="blur"/>
      <feFlood flood-opacity="0.161"/>
      <feComposite operator="in" in2="blur"/>
      <feComposite in="SourceGraphic"/>
    </filter>
  </defs>
  <g transform="matrix(1, 0, 0, 1, 0, 0)" filter="url(#snow)">
    <path id="snow-2" data-name="snow" d="M28.425,23.563l-2.182-1.331,1.679-.478a1.063,1.063,0,0,0,.7-1.29l-.258-1.017a.994.994,0,0,0-1.22-.744L22.576,20l-4.125-2.526,4.119-2.519,4.571,1.3a.994.994,0,0,0,1.22-.744l.258-1.017a1.063,1.063,0,0,0-.7-1.29l-1.679-.478,2.182-1.331a1.093,1.093,0,0,0,.368-1.44l-1-1.829a.972.972,0,0,0-1.362-.389L24.242,9.065l.452-1.775A1.063,1.063,0,0,0,23.99,6l-.962-.273a.994.994,0,0,0-1.22.744L20.581,11.3l-4.054,2.471V8.484l3.467-3.665a1.141,1.141,0,0,0,0-1.543l-.73-.771a1,1,0,0,0-1.459,0L16.527,3.85V1.092A1.067,1.067,0,0,0,15.494,0H13.428A1.067,1.067,0,0,0,12.4,1.092V3.85L11.123,2.505a1,1,0,0,0-1.459,0l-.736.771a1.128,1.128,0,0,0,0,1.543L12.4,8.484v5.29L8.341,11.3,7.114,6.471a.994.994,0,0,0-1.22-.744L4.932,6a1.063,1.063,0,0,0-.7,1.29L4.68,9.065,2.5,7.734a.967.967,0,0,0-1.362.389l-1,1.822A1.086,1.086,0,0,0,.5,11.385l2.182,1.331-1.679.478a1.066,1.066,0,0,0-.71,1.3l.258,1.017a.994.994,0,0,0,1.22.744l4.571-1.3,4.119,2.519L6.346,19.993,1.775,18.7a.994.994,0,0,0-1.22.744L.3,20.457a1.063,1.063,0,0,0,.7,1.29l1.679.478L.5,23.563A1.093,1.093,0,0,0,.129,25l1,1.829a.972.972,0,0,0,1.362.389L4.674,25.89l-.452,1.775a1.063,1.063,0,0,0,.7,1.29l.962.273a.994.994,0,0,0,1.22-.744l1.227-4.833,4.054-2.471v5.29L8.922,30.136a1.128,1.128,0,0,0,0,1.543l.73.771a1,1,0,0,0,1.459,0l1.272-1.345v2.751a1.067,1.067,0,0,0,1.033,1.092h2.066a1.067,1.067,0,0,0,1.033-1.092V31.1l1.272,1.345a1,1,0,0,0,1.459,0l.73-.771a1.141,1.141,0,0,0,0-1.543l-3.447-3.665v-5.29l4.054,2.471,1.227,4.833a.994.994,0,0,0,1.22.744l.962-.273a1.063,1.063,0,0,0,.7-1.29l-.452-1.775,2.182,1.331a.967.967,0,0,0,1.362-.389l1-1.829a1.076,1.076,0,0,0-.362-1.433Z" transform="translate(9 6)" fill="#aaa"/>
  </g>
</svg>
