<svg xmlns="http://www.w3.org/2000/svg" width="16.215" height="14.429" viewBox="0 0 16.215 14.429">
  <path id="Icon_ionic-ios-star" data-name="Icon ionic-ios-star" d="M17.85,8.37H12.526L10.908,3.743a.6.6,0,0,0-1.1,0L8.19,8.37H2.829a.569.569,0,0,0-.579.555.392.392,0,0,0,.011.094A.529.529,0,0,0,2.5,9.41l4.376,2.955L5.2,17.045a.543.543,0,0,0,.2.624.572.572,0,0,0,.326.135.729.729,0,0,0,.362-.125l4.271-2.917,4.271,2.917a.7.7,0,0,0,.362.125.531.531,0,0,0,.322-.135.537.537,0,0,0,.2-.624l-1.679-4.679,4.34-2.983.1-.087a.573.573,0,0,0,.188-.371A.6.6,0,0,0,17.85,8.37Z" transform="translate(-2.25 -3.375)" fill="#f0630a"/>
</svg>
