<svg xmlns="http://www.w3.org/2000/svg" width="15" height="15" viewBox="0 0 15 15">
  <path id="Icon_awesome-thumbs-up" data-name="Icon awesome-thumbs-up" d="M3.047,6.563H.7a.7.7,0,0,0-.7.7V14.3a.7.7,0,0,0,.7.7H3.047a.7.7,0,0,0,.7-.7V7.266A.7.7,0,0,0,3.047,6.563ZM1.875,13.828a.7.7,0,1,1,.7-.7A.7.7,0,0,1,1.875,13.828ZM11.25,2.386c0,1.243-.761,1.94-.975,2.77h2.98A1.75,1.75,0,0,1,15,6.858,2.121,2.121,0,0,1,14.43,8.3l0,0a2.447,2.447,0,0,1-.273,2.328,2.317,2.317,0,0,1-.48,2.19,1.555,1.555,0,0,1-.18,1.308c-.6.859-2.08.871-3.333.871h-.083a8.41,8.41,0,0,1-3.5-.929A4.611,4.611,0,0,0,5.033,13.6a.352.352,0,0,1-.345-.352V6.982a.351.351,0,0,1,.1-.25C5.952,5.586,6.451,4.372,7.4,3.419a3.548,3.548,0,0,0,.744-1.726c.13-.542.4-1.693.994-1.693C9.844,0,11.25.234,11.25,2.386Z" fill="#d66821"/>
</svg>
